<svg width="29" height="28" viewBox="0 0 29 28" fill="none" xmlns="http://www.w3.org/2000/svg">
<path d="M28.2069 24.1479C28.1145 24.357 27.9564 24.5304 27.7566 24.6415C27.5568 24.7527 27.3262 24.7956 27.0998 24.7638C22.7962 24.7638 18.4926 24.7638 14.189 24.7638C14.038 24.7792 13.8855 24.7565 13.7456 24.6978C13.6056 24.639 13.4827 24.5461 13.388 24.4275C13.2945 24.3125 13.2357 24.1733 13.2183 24.0261C13.2009 23.8789 13.2257 23.7299 13.2897 23.5962C13.3468 23.46 13.4406 23.3422 13.5607 23.2561C13.6808 23.1701 13.8225 23.1191 13.9698 23.1088C14.0793 23.1032 14.1891 23.1032 14.2986 23.1088C18.5808 23.1088 22.8478 23.1088 27.0998 23.1088C27.3253 23.0762 27.5553 23.1188 27.7541 23.2302C27.9529 23.3415 28.1094 23.5154 28.1993 23.7247L28.2069 24.1479Z" fill="#50535C"/>
<path d="M28.2069 4.09593C28.1161 4.30658 27.9585 4.48145 27.7584 4.59347C27.5583 4.70549 27.3268 4.74841 27.0998 4.71558C23.1022 4.71558 19.1047 4.71558 15.1034 4.71558C14.529 4.71558 14.1625 4.40953 14.1512 3.91834C14.1417 3.70577 14.2153 3.49785 14.3563 3.33851C14.4973 3.17917 14.6947 3.08088 14.9069 3.06442C15.0051 3.06442 15.1071 3.06442 15.2092 3.06442C19.1689 3.06442 23.1438 3.06442 27.096 3.06442C27.3212 3.03434 27.5501 3.0781 27.7484 3.18915C27.9466 3.30019 28.1035 3.47253 28.1955 3.6803L28.2069 4.09593Z" fill="#50535C"/>
<path d="M7.45205 14.7472H0.915417C0.773305 14.7622 0.629724 14.7402 0.49866 14.6832C0.367596 14.6263 0.253516 14.5363 0.167531 14.4222C0.0815452 14.308 0.0265846 14.1736 0.00800258 14.0319C-0.0105794 13.8902 0.00784751 13.7461 0.0614938 13.6137C0.113908 13.4653 0.208873 13.3356 0.334531 13.2409C0.460189 13.1461 0.61097 13.0905 0.768054 13.0809C0.858647 13.0752 0.949506 13.0752 1.0401 13.0809H13.9547C14.0809 13.0745 14.2075 13.0809 14.3325 13.0998C14.5271 13.1421 14.6997 13.2535 14.8185 13.4132C14.9372 13.573 14.9941 13.7704 14.9786 13.9688C14.9636 14.1721 14.873 14.3623 14.7248 14.5021C14.5765 14.642 14.3814 14.7213 14.1776 14.7245C13.5655 14.7245 12.9496 14.7245 12.3338 14.7245L7.45205 14.7472Z" fill="#50535C"/>
<path d="M27.0998 13.0659C26.0834 13.0923 25.0633 13.0659 24.0431 13.0659C23.8919 13.0659 23.8277 13.0319 23.7824 12.8732C23.533 11.9962 22.975 11.239 22.2112 10.7412C21.4474 10.2434 20.5293 10.0385 19.6263 10.1644C18.7233 10.2903 17.8963 10.7384 17.2978 11.4261C16.6993 12.1139 16.3696 12.9949 16.3696 13.9066C16.3696 14.8183 16.6993 15.6993 17.2978 16.387C17.8963 17.0748 18.7233 17.5229 19.6263 17.6488C20.5293 17.7747 21.4474 17.5698 22.2112 17.072C22.975 16.5742 23.533 15.8169 23.7824 14.94C23.8315 14.7548 23.9033 14.7133 24.0771 14.7171C25.0859 14.7171 26.0948 14.7171 27.0998 14.7171C27.3253 14.7497 27.5553 14.707 27.7541 14.5957C27.9529 14.4843 28.1094 14.3105 28.1993 14.1012V13.6818C28.1094 13.4724 27.9529 13.2986 27.7541 13.1873C27.5553 13.0759 27.3253 13.0332 27.0998 13.0659Z" fill="#50535C"/>
<path d="M12.7794 3.44987C12.7017 2.55989 12.3112 1.72622 11.6772 1.09684C11.0432 0.46747 10.2066 0.0831116 9.3161 0.0119959C8.42557 -0.0591199 7.53864 0.187608 6.81276 0.708382C6.08688 1.22916 5.56901 1.99029 5.35108 2.85666C5.34847 2.88736 5.33942 2.91716 5.32452 2.94412C5.30962 2.97108 5.28921 2.9946 5.26461 3.01314C5.24001 3.03168 5.21177 3.04482 5.18175 3.05171C5.15172 3.05861 5.12059 3.05909 5.09036 3.05314C4.3838 3.05314 3.67725 3.05314 2.97069 3.05314H0.881217C0.705449 3.04477 0.53154 3.09215 0.384298 3.1885C0.237055 3.28485 0.124012 3.42526 0.0613093 3.58967C0.00829842 3.71927 -0.0107962 3.86025 0.00582318 3.99928C0.0224426 4.13831 0.0742238 4.27081 0.156288 4.38426C0.238353 4.49772 0.347982 4.58838 0.474826 4.64768C0.601669 4.70699 0.741536 4.73298 0.881217 4.7232C2.27419 4.7232 3.66842 4.7232 5.06391 4.7232C5.24528 4.7232 5.30951 4.77609 5.35863 4.9499C5.55754 5.93396 6.13923 6.79869 6.97572 7.35387C7.3899 7.62877 7.85419 7.81939 8.34204 7.91486C8.8299 8.01033 9.33179 8.00877 9.81904 7.91028C10.3063 7.81178 10.7694 7.61828 11.1819 7.34082C11.5943 7.06336 11.9481 6.70738 12.223 6.29319C12.4979 5.879 12.6885 5.41473 12.784 4.92687C12.8795 4.43901 12.8779 3.93713 12.7794 3.44987ZM9.00101 6.01919C8.43283 6.01919 7.88791 5.79348 7.48614 5.39171C7.08437 4.98994 6.85865 4.44502 6.85865 3.87683C6.85865 3.30864 7.08437 2.76373 7.48614 2.36196C7.88791 1.96019 8.43283 1.73448 9.00101 1.73448C9.5692 1.73448 10.1141 1.96019 10.5159 2.36196C10.9177 2.76373 11.1434 3.30864 11.1434 3.87683C11.1434 4.44502 10.9177 4.98994 10.5159 5.39171C10.1141 5.79348 9.5692 6.01919 9.00101 6.01919Z" fill="#50535C"/>
<path d="M11.8388 23.4149C11.7343 22.5404 11.3275 21.7299 10.6888 21.1234C10.0501 20.5169 9.21966 20.1526 8.34089 20.0935C7.46213 20.0343 6.5903 20.284 5.8761 20.7994C5.16189 21.3148 4.65017 22.0635 4.42938 22.9162C4.38026 23.0786 4.30847 23.1051 4.16111 23.1013C3.60947 23.1013 3.05782 23.1013 2.50995 23.1013C1.96208 23.1013 1.40666 23.1013 0.855009 23.1013C0.684233 23.0968 0.516363 23.1461 0.375271 23.2425C0.234178 23.3388 0.127038 23.4771 0.0690941 23.6378C0.0160289 23.7656 -0.00385898 23.9046 0.0112673 24.0421C0.0263936 24.1796 0.0760442 24.311 0.15561 24.4241C0.235175 24.5373 0.342063 24.6284 0.466329 24.6891C0.590595 24.7498 0.728204 24.7781 0.866343 24.7714C1.9583 24.7714 3.05025 24.7714 4.14221 24.7714C4.31602 24.7714 4.38403 24.8129 4.43693 24.9943C4.53939 25.4808 4.73668 25.9424 5.01753 26.3526C5.29837 26.7629 5.65727 27.1138 6.07373 27.3854C6.4902 27.657 6.95608 27.8438 7.44477 27.9354C7.93345 28.0269 8.43539 28.0212 8.9219 27.9188C9.40841 27.8163 9.86997 27.619 10.2802 27.3382C10.6905 27.0573 11.0414 26.6984 11.313 26.282C11.5846 25.8655 11.7714 25.3996 11.863 24.9109C11.9545 24.4223 11.9488 23.9203 11.8464 23.4338L11.8388 23.4149ZM8.06042 26.0598C7.63638 26.0591 7.22211 25.9325 6.87006 25.6961C6.51801 25.4598 6.24402 25.1242 6.08278 24.732C5.92155 24.3398 5.88033 23.9086 5.96434 23.493C6.04835 23.0774 6.25382 22.696 6.55472 22.3972C6.85561 22.0985 7.23841 21.8957 7.65462 21.8146C8.07084 21.7335 8.50176 21.7778 8.8928 21.9418C9.28384 22.1058 9.61741 22.3822 9.85128 22.7359C10.0852 23.0896 10.2088 23.5048 10.2066 23.9288C10.2086 24.2115 10.1545 24.4919 10.0474 24.7536C9.94036 25.0153 9.78248 25.2532 9.58289 25.4535C9.38331 25.6537 9.14598 25.8125 8.88465 25.9204C8.62332 26.0284 8.34317 26.0835 8.06042 26.0825V26.0598Z" fill="#50535C"/>
</svg>
