<svg width="28" height="25" viewBox="0 0 28 25" fill="none" xmlns="http://www.w3.org/2000/svg">
<path d="M3.49979 2.00196C3.49979 1.7064 3.49979 1.45751 3.49979 1.19306C3.5309 0.601946 3.85757 0.275277 4.44868 0.259721C5.56869 0.259721 6.6887 0.244166 7.80871 0.259721C8.41539 0.259721 8.71094 0.586391 8.74205 1.19306C8.74205 1.44195 8.74205 1.7064 8.74205 2.00196C9.59762 1.95529 10.4065 2.15752 11.1999 1.69084C11.8999 1.27084 12.631 0.928616 13.3932 0.617502C13.8754 0.430834 14.4199 0.275277 14.9332 0.275277C18.0599 0.259721 21.2022 0.259721 24.3444 0.259721C26.4444 0.259721 27.9844 1.79973 28 3.89975C28 9.6398 28 15.3643 28 21.1043C28 23.2044 26.4444 24.7444 24.3444 24.7444C17.4532 24.7444 10.5621 24.7444 3.6709 24.7444C1.53977 24.7444 -0.000244141 23.2044 -0.000244141 21.0888C-0.000244141 15.9554 -0.000244141 10.822 -0.000244141 5.70421C-0.000244141 3.93086 1.02643 2.59308 2.70645 2.14196C2.95534 2.07974 3.20423 2.06418 3.49979 2.01751V2.00196ZM2.59756 11.6309V12.0354C2.59756 15.0065 2.59756 17.9932 2.59756 20.9643C2.59756 21.8666 2.87756 22.131 3.77979 22.131C10.5932 22.131 17.391 22.131 24.2044 22.131C25.1222 22.131 25.3866 21.8666 25.3866 20.9643C25.3866 17.9932 25.3866 15.0065 25.3866 12.0354V11.6309H20.7355C21.2799 13.8554 20.8755 15.8776 19.5222 17.6821C18.1377 19.5177 16.2088 20.3732 13.9532 20.3577C9.69095 20.3421 6.17537 16.6399 7.20204 11.6465H2.61311L2.59756 11.6309ZM25.3711 9.00202V8.62868C25.3711 7.07311 25.3711 5.51755 25.3711 3.96198C25.3711 3.15308 25.0755 2.85752 24.2822 2.85752C21.2022 2.85752 18.1066 2.85752 15.0266 2.85752C14.731 2.85752 14.4199 2.95086 14.1554 3.0753C13.471 3.38642 12.8021 3.7442 12.1488 4.10198C11.4799 4.45976 10.7799 4.61531 10.0176 4.61531C7.88649 4.61531 5.77092 4.61531 3.63979 4.61531C2.93978 4.61531 2.61311 4.95754 2.61311 5.64199C2.61311 6.66867 2.61311 7.67979 2.61311 8.70646C2.61311 8.7998 2.62867 8.89313 2.64422 9.00202C2.79978 9.00202 2.92423 9.00202 3.06423 9.00202C4.7598 9.00202 6.43981 9.00202 8.13538 9.00202C8.4465 9.00202 8.64872 8.89313 8.85094 8.67535C10.251 7.11978 12.0243 6.37311 14.0932 6.38866C16.1466 6.41978 17.9199 7.182 19.2888 8.76868C19.3977 8.89313 19.6155 8.97091 19.7866 8.98646C21.4822 8.98646 23.1622 8.98646 24.8577 8.98646H25.4178L25.3711 9.00202ZM13.9843 17.7443C16.4421 17.7443 18.3555 15.831 18.371 13.3732C18.3866 10.9154 16.4421 8.97091 13.9843 8.97091C11.5265 8.97091 9.61317 10.8843 9.59762 13.3421C9.58206 15.7999 11.5265 17.7443 13.9843 17.7443Z" fill="#50535C"/>
</svg>
