<svg width="45" height="39" viewBox="0 0 45 39" fill="none" xmlns="http://www.w3.org/2000/svg">
<path d="M5.625 2.7812C5.625 2.31125 5.625 1.91551 5.625 1.49503C5.675 0.555141 6.2 0.0357269 7.15 0.0109929C8.95 0.0109929 10.75 -0.0137411 12.55 0.0109929C13.525 0.0109929 14 0.530407 14.05 1.49503C14.05 1.89078 14.05 2.31125 14.05 2.7812C15.425 2.707 16.725 3.02854 18 2.28652C19.125 1.6187 20.3 1.07455 21.525 0.579875C22.3 0.283067 23.175 0.0357269 24 0.0357269C29.025 0.0109929 34.075 0.0109929 39.125 0.0109929C42.5 0.0109929 44.975 2.45966 45 5.79875C45 14.9256 45 24.0277 45 33.1545C45 36.4936 42.5 38.9423 39.125 38.9423C28.05 38.9423 16.975 38.9423 5.9 38.9423C2.475 38.9423 0 36.4936 0 33.1298C0 24.9676 0 16.8054 0 8.66789C0 5.84822 1.65 3.72109 4.35 3.00381C4.75 2.90487 5.15 2.88014 5.625 2.80593V2.7812ZM4.175 18.0915V18.7346C4.175 23.4588 4.175 28.2078 4.175 32.9319C4.175 34.3665 4.625 34.787 6.075 34.787C17.025 34.787 27.95 34.787 38.9 34.787C40.375 34.787 40.8 34.3665 40.8 32.9319C40.8 28.2078 40.8 23.4588 40.8 18.7346V18.0915H33.325C34.2 21.6285 33.55 24.8439 31.375 27.7131C29.15 30.6317 26.05 31.9921 22.425 31.9673C15.575 31.9426 9.925 26.0559 11.575 18.1163H4.2L4.175 18.0915ZM40.775 13.9115V13.3179C40.775 10.8445 40.775 8.37108 40.775 5.89768C40.775 4.61152 40.3 4.14157 39.025 4.14157C34.075 4.14157 29.1 4.14157 24.15 4.14157C23.675 4.14157 23.175 4.28997 22.75 4.48785C21.65 4.98253 20.575 5.55141 19.525 6.12029C18.45 6.68917 17.325 6.93651 16.1 6.93651C12.675 6.93651 9.275 6.93651 5.85 6.93651C4.725 6.93651 4.2 7.48066 4.2 8.56896C4.2 10.2014 4.2 11.8091 4.2 13.4416C4.2 13.59 4.225 13.7384 4.25 13.9115C4.5 13.9115 4.7 13.9115 4.925 13.9115C7.65 13.9115 10.35 13.9115 13.075 13.9115C13.575 13.9115 13.9 13.7384 14.225 13.3921C16.475 10.9187 19.325 9.73145 22.65 9.75619C25.95 9.80566 28.8 11.0176 31 13.5405C31.175 13.7384 31.525 13.862 31.8 13.8868C34.525 13.8868 37.225 13.8868 39.95 13.8868H40.85L40.775 13.9115ZM22.475 27.812C26.425 27.812 29.5 24.7697 29.525 20.8618C29.55 16.9538 26.425 13.862 22.475 13.862C18.525 13.862 15.45 16.9043 15.425 20.8123C15.4 24.7203 18.525 27.812 22.475 27.812Z" fill="#50535C"/>
</svg>
