<svg width="54" height="49" viewBox="0 0 54 49" fill="none" xmlns="http://www.w3.org/2000/svg">
<path d="M7.0925 4.51636C5.51799 4.51636 3.97111 4.51636 2.45184 4.51636C1.18118 4.51636 0.324873 3.88103 0.076266 2.80373C-0.282833 1.31209 0.656348 0.0690574 2.25848 0.0414345C4.49594 -0.0138115 6.7334 -0.0138115 8.99849 0.0414345C10.352 0.0690574 11.1531 0.952993 11.2636 2.33414C11.2636 2.5275 11.3188 2.74849 11.3464 3.05234H12.1475C24.9646 3.05234 37.7816 3.05234 50.5987 3.05234C52.3389 3.05234 53.4991 3.79816 53.8858 5.2898C54.0239 5.84226 54.0516 6.53283 53.8858 7.08529C52.2561 12.9966 50.5987 18.9079 48.9137 24.8192C48.4441 26.4214 47.3668 27.1672 45.6266 27.1948C42.8643 27.1948 40.102 27.1948 37.312 27.1948H16.0423C16.3186 28.6312 16.5396 30.0124 16.8434 31.3935C16.871 31.5316 17.1196 31.6697 17.2854 31.7526C17.4235 31.8079 17.6169 31.7526 17.7826 31.7526C27.0363 31.7526 36.29 31.7526 45.5161 31.7526C46.4829 31.7526 47.3668 31.946 47.864 32.8852C48.7203 34.5149 47.7535 36.117 45.8475 36.2552C45.6818 36.2552 45.5161 36.2552 45.3503 36.2552C35.4061 36.2552 25.4618 36.2552 15.5175 36.2552C13.6944 36.2552 12.9762 35.6475 12.6447 33.8796C10.8216 24.2668 9.02611 14.654 7.20299 5.01357C7.20299 4.87546 7.12012 4.73734 7.06488 4.51636H7.0925ZM12.258 7.55488C13.2248 12.4994 14.164 17.3887 15.1032 22.2503C15.186 22.7199 15.4623 22.6647 15.7937 22.6647C25.296 22.6647 34.7983 22.6647 44.3007 22.6647C44.7702 22.6647 44.936 22.4989 45.0741 22.0846C46.3724 17.4163 47.6983 12.748 48.9966 8.10734C49.0518 7.94161 49.0518 7.74824 49.0794 7.55488H12.258Z" fill="#50535C"/>
<path d="M48.2229 43.8243C48.0019 46.5037 46.3445 48.2992 43.6927 48.2716C41.0409 48.2716 39.2178 46.4761 39.2454 43.7967C39.2454 41.062 41.0962 39.3494 43.7203 39.3494C46.4826 39.3494 48.0019 41.2277 48.2229 43.8243Z" fill="#50535C"/>
<path d="M21.0432 43.8243C20.8222 46.5037 19.1648 48.2992 16.513 48.2716C13.8612 48.2716 12.0381 46.4761 12.0657 43.7967C12.0657 41.062 13.9165 39.3494 16.5407 39.3494C19.2753 39.3494 20.8222 41.2277 21.0432 43.8243Z" fill="#50535C"/>
</svg>
