<svg width="28" height="25" viewBox="0 0 28 25" fill="none" xmlns="http://www.w3.org/2000/svg">
<path d="M3.57932 2.91852C2.78472 2.91852 2.00407 2.91852 1.23735 2.91852C0.5961 2.91852 0.163951 2.59789 0.0384886 2.05422C-0.142735 1.30145 0.331234 0.674133 1.13977 0.660193C2.26893 0.632312 3.3981 0.632312 4.5412 0.660193C5.22427 0.674133 5.62854 1.12022 5.6843 1.81724C5.6843 1.91482 5.71218 2.02634 5.72612 2.17968H6.13039C12.5987 2.17968 19.067 2.17968 25.5353 2.17968C26.4135 2.17968 26.999 2.55607 27.1942 3.30885C27.2639 3.58765 27.2778 3.93616 27.1942 4.21496C26.3717 7.19818 25.5353 10.1814 24.6849 13.1646C24.4479 13.9732 23.9042 14.3495 23.026 14.3635C21.632 14.3635 20.238 14.3635 18.83 14.3635H8.09597C8.23537 15.0884 8.3469 15.7854 8.50024 16.4824C8.51418 16.5521 8.63964 16.6218 8.72328 16.6636C8.79298 16.6915 8.89057 16.6636 8.97421 16.6636C13.6442 16.6636 18.3142 16.6636 22.9702 16.6636C23.4582 16.6636 23.9042 16.7612 24.1552 17.2352C24.5873 18.0577 24.0994 18.8662 23.1375 18.9359C23.0539 18.9359 22.9702 18.9359 22.8866 18.9359C17.8681 18.9359 12.8496 18.9359 7.8311 18.9359C6.91105 18.9359 6.5486 18.6292 6.38132 17.737C5.46126 12.8858 4.55514 8.0346 3.63508 3.16944C3.63508 3.09974 3.59326 3.03004 3.56538 2.91852H3.57932ZM6.18615 4.45195C6.67406 6.94726 7.14803 9.41469 7.622 11.8682C7.66382 12.1052 7.80322 12.0773 7.97051 12.0773C12.766 12.0773 17.5614 12.0773 22.3569 12.0773C22.5939 12.0773 22.6775 11.9936 22.7472 11.7845C23.4024 9.42863 24.0715 7.07272 24.7267 4.73075C24.7546 4.64711 24.7546 4.54953 24.7685 4.45195H6.18615V4.45195Z" fill="#50535C"/>
<path d="M24.3364 22.7556C24.2249 24.1078 23.3885 25.014 22.0502 25C20.7119 25 19.7919 24.0939 19.8058 22.7417C19.8058 21.3616 20.7398 20.4973 22.0641 20.4973C23.4582 20.4973 24.2249 21.4453 24.3364 22.7556V22.7556Z" fill="#50535C"/>
<path d="M10.6196 22.7556C10.5081 24.1078 9.67168 25.014 8.33341 25C6.99514 25 6.07508 24.0939 6.08902 22.7417C6.08902 21.3616 7.02302 20.4973 8.34735 20.4973C9.72744 20.4973 10.5081 21.4453 10.6196 22.7556V22.7556Z" fill="#50535C"/>
</svg>
