<svg width="32" height="32" viewBox="0 0 32 32" fill="none" xmlns="http://www.w3.org/2000/svg">
<path d="M31.9975 15.4136V16.5395C31.935 16.6101 31.9769 16.6946 31.965 16.7721V16.8916C31.9687 16.9423 31.9518 16.9973 31.9975 17.0392V17.2894C31.9262 18.0725 31.8443 18.8532 31.6629 19.6232C31.1011 22.0435 29.9816 24.299 28.3935 26.2097C26.949 27.9664 25.1453 29.3934 23.1036 30.3949C21.4001 31.2349 19.6015 31.8004 17.7067 31.933C15.6392 32.0781 13.5762 32.0231 11.5619 31.4094C9.12295 30.6676 6.96043 29.4673 5.09122 27.7253C3.65589 26.3929 2.47551 24.8099 1.60796 23.054C0.764346 21.3514 0.212766 19.5512 0.0670567 17.656C-0.141815 14.9513 0.110191 12.2986 1.2077 9.77468C1.96439 8.03454 2.95872 6.45453 4.2576 5.06029C5.5886 3.62338 7.16958 2.44032 8.92346 1.56876C10.462 0.801195 12.1177 0.295531 13.8226 0.07256C14.1352 0.0306516 14.461 0.0556694 14.7768 0H15.027C15.0683 0.0450359 15.1239 0.0281481 15.174 0.0319011C15.2496 0.0212676 15.3322 0.0594224 15.401 0H16.5892C16.6423 0.0531674 16.7092 0.0243951 16.7705 0.0319011H16.8843C16.9331 0.0319011 16.9863 0.0431594 17.0257 0H17.2133C17.7549 0.0706814 18.3033 0.0656777 18.8442 0.164507C21.5897 0.650353 24.1596 1.84825 26.2973 3.63853C28.0302 5.07393 29.4398 6.85986 30.4335 8.87897C31.1977 10.4172 31.7025 12.0712 31.9274 13.7741C31.9693 14.0869 31.9443 14.4121 32 14.7274V14.915C31.9543 14.9569 31.9712 15.012 31.9675 15.0626V15.1827C31.9769 15.2597 31.9375 15.3441 31.9975 15.4136Z" fill="#50535C"/>
<path d="M13.9419 20.9999C13.7849 21.0022 13.629 20.9731 13.4839 20.9142C13.3388 20.8554 13.2077 20.7681 13.0985 20.6578C11.8495 19.4422 10.5982 18.2289 9.36047 17.003C8.86949 16.5164 8.88896 15.8133 9.36461 15.3613C9.84026 14.9093 10.5369 14.9219 11.0485 15.4131C11.9429 16.2711 12.827 17.1383 13.7009 18.0147C13.8989 18.2146 13.9956 18.1742 14.1724 18.0026C16.4047 15.8122 18.6407 13.6253 20.8804 11.4422C21.2458 11.0846 21.6561 10.8992 22.1771 11.0564C22.353 11.1088 22.5137 11.2013 22.6459 11.3263C22.7781 11.4513 22.878 11.6051 22.9375 11.7751C22.997 11.9452 23.0144 12.1266 22.9881 12.3044C22.9619 12.4823 22.8928 12.6516 22.7865 12.7983C22.7047 12.9057 22.6139 13.0063 22.5148 13.0988C19.9808 15.5761 17.4463 18.0522 14.9115 20.5271C14.6392 20.7949 14.3451 21.0004 13.9419 20.9999Z" fill="white"/>
</svg>
