<svg width="32" height="30" viewBox="0 0 32 30" fill="none" xmlns="http://www.w3.org/2000/svg">
<path d="M29.8264 17.7044C29.6878 17.707 29.551 17.6731 29.4297 17.6061C29.3461 17.556 29.2733 17.4899 29.2155 17.4114C29.1576 17.333 29.1159 17.2439 29.0927 17.1492C29.0695 17.0545 29.0654 16.9562 29.0804 16.8599C29.0955 16.7636 29.1295 16.6713 29.1805 16.5882C29.5802 15.9296 29.7949 15.1754 29.8018 14.405C29.8018 13.2879 29.358 12.2166 28.5681 11.4267C27.7782 10.6368 26.7069 10.193 25.5898 10.193H24.3508C24.2525 10.1949 24.1549 10.177 24.0638 10.1403C23.9726 10.1036 23.8898 10.0488 23.8204 9.97933C23.7509 9.90985 23.6961 9.82706 23.6594 9.73592C23.6227 9.64477 23.6048 9.54716 23.6067 9.44891V8.20988C23.6085 7.33087 23.4372 6.4601 23.1025 5.6473C22.7678 4.83449 22.2763 4.09557 21.6561 3.47271C21.0358 2.84985 20.299 2.35526 19.4876 2.01717C18.6762 1.67908 17.8061 1.50412 16.9271 1.50228C16.0481 1.50044 15.1774 1.67174 14.3646 2.00642C13.5517 2.3411 12.8128 2.8326 12.19 3.45285C10.932 4.70551 10.2232 6.40656 10.2195 8.1818V9.42434C10.2214 9.52259 10.2035 9.6202 10.1668 9.71135C10.1301 9.80249 10.0753 9.88528 10.0058 9.95476C9.93634 10.0242 9.85356 10.079 9.76241 10.1157C9.67127 10.1524 9.57365 10.1704 9.47541 10.1685H8.23639C7.1193 10.1685 6.04795 10.6122 5.25805 11.4021C4.46815 12.192 4.02439 13.2634 4.02439 14.3805C4.02329 14.6629 4.04795 14.9449 4.09809 15.2229C4.12153 15.3185 4.12545 15.418 4.10963 15.5152C4.09381 15.6125 4.05858 15.7055 4.00601 15.7888C3.95344 15.8722 3.88462 15.944 3.80367 16.0002C3.72272 16.0563 3.6313 16.0956 3.53485 16.1156C3.43839 16.1357 3.33886 16.1361 3.24225 16.1169C3.14563 16.0976 3.05387 16.0591 2.97246 16.0036C2.89105 15.9481 2.82166 15.8768 2.7684 15.794C2.71515 15.7111 2.67914 15.6183 2.66251 15.5212C2.58102 15.1464 2.53866 14.7641 2.53613 14.3805C2.53706 12.8683 3.13841 11.4185 4.20797 10.3496C5.27753 9.28067 6.72776 8.68022 8.23988 8.68022H8.7348V8.1818C8.7348 6.01185 9.59681 3.93078 11.1312 2.39639C12.6656 0.862009 14.7467 0 16.9166 0C19.0866 0 21.1676 0.862009 22.702 2.39639C24.2364 3.93078 25.0984 6.01185 25.0984 8.1818V8.68022H25.5933C27.1054 8.68022 28.5557 9.28067 29.6252 10.3496C30.6948 11.4185 31.2961 12.8683 31.2971 14.3805C31.2902 15.4272 31.0082 16.4537 30.4792 17.3569C30.4077 17.4644 30.3106 17.5524 30.1966 17.6131C30.0827 17.6737 29.9555 17.7051 29.8264 17.7044Z" fill="#50535C"/>
<path d="M30.5214 19.2523C30.0424 18.804 29.4072 18.5608 28.7513 18.5746C28.0955 18.5884 27.4711 18.858 27.0114 19.326C23.5645 22.7728 20.6934 23.9873 17.1202 23.538C16.1018 23.4085 15.117 23.0882 14.2174 22.5938C14.0454 22.5201 13.8454 22.4218 13.6488 22.3235C13.5997 22.2989 13.4487 22.2217 12.9047 21.9269C12.7918 21.8611 12.6981 21.7668 12.633 21.6535C12.5679 21.5401 12.5337 21.4117 12.5337 21.281C12.5337 21.1504 12.5679 21.022 12.633 20.9086C12.6981 20.7953 12.7918 20.701 12.9047 20.6352L16.6463 18.4801C17.254 18.1391 17.7098 17.5805 17.9221 16.9168C18.1344 16.2532 18.0874 15.5338 17.7906 14.9034C17.6267 14.5668 17.3944 14.2681 17.1085 14.0263C16.8226 13.7846 16.4895 13.6051 16.1304 13.4994C15.7733 13.3909 15.3976 13.357 15.0269 13.3998C14.6561 13.4427 14.2981 13.5614 13.9752 13.7486L5.40731 18.6942C5.23602 18.7924 5.11077 18.9546 5.0591 19.1452C5.00742 19.3358 5.03357 19.539 5.13179 19.7103C5.23 19.8816 5.39223 20.0069 5.58279 20.0585C5.77335 20.1102 5.97665 20.0841 6.14794 19.9859L14.7264 15.0403C14.8743 14.9518 15.039 14.8952 15.2101 14.8741C15.3811 14.8529 15.5547 14.8677 15.7197 14.9174C15.8825 14.9649 16.0332 15.0468 16.1616 15.1576C16.29 15.2685 16.3931 15.4056 16.4638 15.5598C16.6002 15.8545 16.6199 16.1899 16.519 16.4986C16.4181 16.8073 16.2039 17.0663 15.9198 17.2235L12.1746 19.3646C11.8365 19.5609 11.556 19.8425 11.3609 20.1813C11.1659 20.5201 11.0632 20.9042 11.0632 21.2951C11.0632 21.686 11.1659 22.0701 11.3609 22.4089C11.556 22.7477 11.8365 23.0293 12.1746 23.2256C12.7432 23.5485 12.9433 23.6468 13.0416 23.6959C13.2416 23.7942 13.4382 23.8714 13.6137 23.9697C14.6554 24.5213 15.7889 24.8781 16.9587 25.0227C21.0022 25.5176 24.3297 24.1522 28.0924 20.386C28.2744 20.1974 28.5226 20.0869 28.7845 20.0777C29.0464 20.0685 29.3017 20.1614 29.4964 20.3369C29.6819 20.5362 29.783 20.7996 29.7784 21.0719C29.7738 21.3441 29.664 21.604 29.4719 21.797C27.9836 23.359 22.5045 28.4906 14.2736 28.4906C10.209 28.4906 5.47401 26.8058 4.01034 26.2617V18.5959C4.0127 18.498 3.99532 18.4006 3.95924 18.3095C3.92317 18.2184 3.86915 18.1355 3.80037 18.0657C3.73159 17.996 3.64947 17.9408 3.55891 17.9034C3.46835 17.8661 3.37121 17.8473 3.27325 17.8483H0.795191C0.597838 17.8483 0.408562 17.9267 0.269013 18.0662C0.129463 18.2058 0.0510732 18.395 0.0510732 18.5924C0.0510732 18.7897 0.129463 18.979 0.269013 19.1186C0.408562 19.2581 0.597838 19.3365 0.795191 19.3365H2.52913V27.7605H0.795191C0.69341 27.7535 0.591277 27.7675 0.495136 27.8016C0.398994 27.8358 0.310896 27.8893 0.236321 27.9589C0.161745 28.0286 0.102268 28.1128 0.0616135 28.2063C0.0209585 28.2999 0 28.4008 0 28.5029C0 28.6049 0.0209585 28.7058 0.0616135 28.7994C0.102268 28.893 0.161745 28.9772 0.236321 29.0468C0.310896 29.1164 0.398994 29.17 0.495136 29.2041C0.591277 29.2382 0.69341 29.2522 0.795191 29.2452H3.27325C3.37149 29.2471 3.46911 29.2292 3.56026 29.1925C3.6514 29.1558 3.73419 29.101 3.80367 29.0315C3.87315 28.9621 3.92788 28.8793 3.9646 28.7881C4.00132 28.697 4.01927 28.5994 4.01737 28.5011V27.8693C5.97594 28.5713 10.3354 29.9999 14.2806 29.9999C20.2476 29.9999 26.3059 27.3218 30.5459 22.836C31.0111 22.354 31.269 21.709 31.2644 21.0391C31.2598 20.3693 30.9931 19.7279 30.5214 19.2523Z" fill="#50535C"/>
</svg>
