<svg width="32" height="32" viewBox="0 0 32 32" fill="none" xmlns="http://www.w3.org/2000/svg">
<path d="M16.4409 17.4145C16.4409 18.1659 16.1426 18.8866 15.6116 19.4183C15.0806 19.95 14.3603 20.2492 13.6089 20.2502C12.8568 20.2502 12.1355 19.9514 11.6038 19.4196C11.072 18.8878 10.7732 18.1666 10.7732 17.4145C10.7771 16.665 11.0776 15.9476 11.609 15.419C12.1404 14.8904 12.8594 14.5937 13.6089 14.5938C14.3603 14.5947 15.0806 14.8939 15.6116 15.4256C16.1426 15.9573 16.4409 16.678 16.4409 17.4294" fill="#50535C"/>
<path d="M31.0153 3.81126C31.007 3.79166 30.9928 3.77508 30.9748 3.76373C30.9568 3.75238 30.9357 3.7468 30.9144 3.74774L27.7724 3.80752L27.212 3.24711L27.2755 0.108785C27.2754 0.0876988 27.2695 0.0670479 27.2582 0.0492041C27.247 0.0313604 27.231 0.0170478 27.212 0.00791049C27.1925 5.77975e-05 27.1713 -0.00200408 27.1507 0.00197415C27.1302 0.00595237 27.1112 0.0158005 27.0961 0.0303272L24.0026 3.12008C23.9843 3.14078 23.9738 3.16719 23.9728 3.1948L23.9205 5.75029L12.7122 16.9586L14.0534 18.3297L25.2617 7.12144L27.8209 7.07287C27.8345 7.07276 27.8479 7.06969 27.8601 7.06388C27.8724 7.05808 27.8832 7.04967 27.8919 7.03924L30.9817 3.94949C30.9973 3.93511 31.0081 3.91634 31.0128 3.89565C31.0174 3.87497 31.0157 3.85336 31.0078 3.83367L31.0153 3.81126Z" fill="#50535C"/>
<path d="M24.5743 11.4441C24.4525 11.5669 24.3711 11.7239 24.341 11.8942C24.311 12.0645 24.3337 12.2398 24.4061 12.3968C25.14 13.968 25.5225 15.6803 25.527 17.4144C25.5313 18.9768 25.2258 20.5246 24.6281 21.9681C24.0305 23.4117 23.1525 24.7224 22.0449 25.8244C20.9392 26.9346 19.6243 27.8143 18.1762 28.4126C16.7281 29.011 15.1756 29.3161 13.6088 29.3102C12.0462 29.314 10.4983 29.008 9.0547 28.4096C7.61113 27.8113 6.30056 26.9326 5.19886 25.8244C2.97397 23.5925 1.72463 20.5696 1.72463 17.4182C1.72463 14.2667 2.97397 11.2438 5.19886 9.01195C6.30013 7.90289 7.61053 7.0234 9.05414 6.4244C10.4977 5.82541 12.0459 5.51883 13.6088 5.52243C15.3157 5.52239 17.0027 5.88935 18.5554 6.59843C18.7069 6.66288 18.8718 6.68941 19.0359 6.67574C19.1999 6.66207 19.3582 6.6086 19.4969 6.51997C19.6142 6.42833 19.7059 6.3079 19.7629 6.17038C19.82 6.03285 19.8405 5.8829 19.8224 5.73512C19.8044 5.58733 19.7484 5.44672 19.6599 5.32697C19.5715 5.20721 19.4535 5.11238 19.3176 5.05168C17.5279 4.22546 15.58 3.7984 13.6088 3.80009C11.8202 3.7957 10.0485 4.14573 8.39598 4.82996C6.74345 5.51418 5.24286 6.51905 3.98089 7.7865C2.61287 9.15798 1.55282 10.8052 0.871385 12.6185C0.189948 14.4318 -0.0972387 16.3696 0.0289649 18.3026C0.155169 20.2356 0.691864 22.1195 1.60329 23.8288C2.51471 25.5381 3.77994 27.0335 5.31468 28.2155C7.246 29.7119 9.54937 30.6524 11.9761 30.9354C14.025 31.1856 16.104 30.965 18.0547 30.2904C20.0054 29.6158 21.7765 28.5049 23.233 27.0424C24.5022 25.7824 25.5082 24.2828 26.1926 22.6305C26.8769 20.9783 27.226 19.2065 27.2194 17.4182C27.2228 15.446 26.797 13.4968 25.9716 11.7057C25.9141 11.5785 25.8268 11.467 25.717 11.3808C25.6072 11.2946 25.4783 11.2362 25.3411 11.2105C25.2039 11.1849 25.0626 11.1927 24.9291 11.2334C24.7955 11.274 24.6738 11.3463 24.5743 11.4441Z" fill="#50535C"/>
<path d="M20.3899 15.6286L20.2554 15.7631C20.1661 15.8539 20.0996 15.9646 20.0613 16.086C20.023 16.2074 20.0139 16.3362 20.0349 16.4618C20.1838 17.4667 20.0961 18.4924 19.779 19.4575C19.4618 20.4226 18.9239 21.3004 18.208 22.0211C17.6061 22.6285 16.8897 23.1103 16.1002 23.4387C15.3107 23.767 14.4639 23.9354 13.6088 23.934C12.7537 23.9364 11.9066 23.7693 11.1166 23.4422C10.3265 23.1152 9.60912 22.6347 9.00596 22.0286C7.78766 20.8065 7.10354 19.1513 7.10354 17.4257C7.10354 15.7001 7.78766 14.0449 9.00596 12.8228C9.72104 12.1008 10.5968 11.5582 11.5617 11.2393C12.5266 10.9205 13.5533 10.8345 14.5578 10.9884C14.6857 11.0106 14.817 11.0022 14.9411 10.9639C15.0651 10.9256 15.1783 10.8584 15.2714 10.768L15.3723 10.6671C15.4809 10.5615 15.5576 10.4275 15.5937 10.2803C15.6297 10.1332 15.6236 9.97889 15.576 9.83506C15.5285 9.69123 15.4414 9.56369 15.3248 9.46703C15.2081 9.37037 15.0666 9.30849 14.9165 9.28847C14.4842 9.21794 14.0468 9.18295 13.6088 9.18386C12.5266 9.18139 11.4546 9.39416 10.4553 9.80979C9.45598 10.2254 8.54931 10.8356 7.78799 11.6048C7.02172 12.367 6.41419 13.2736 6.00056 14.2721C5.58692 15.2706 5.37539 16.3412 5.37821 17.422C5.3749 18.5034 5.58619 19.5747 5.99984 20.5738C6.41349 21.573 7.02127 22.4802 7.78799 23.2428C8.55148 24.0078 9.45897 24.614 10.4581 25.0264C11.4571 25.4387 12.528 25.649 13.6088 25.6451C14.69 25.6483 15.761 25.4365 16.7596 25.0222C17.7582 24.6079 18.6646 23.9992 19.4259 23.2316C20.3469 22.3077 21.0355 21.1784 21.4349 19.9365C21.8344 18.6947 21.9333 17.3757 21.7236 16.0882C21.7045 15.9429 21.6452 15.8059 21.5526 15.6924C21.4599 15.579 21.3374 15.4936 21.1989 15.4459C21.0604 15.3982 20.9113 15.39 20.7684 15.4223C20.6255 15.4545 20.4944 15.526 20.3899 15.6286Z" fill="#50535C"/>
</svg>
