<svg width="69" height="69" viewBox="0 0 69 69" fill="none" xmlns="http://www.w3.org/2000/svg">
<path d="M2 67C2.03772 63.7153 2.70648 60.4702 3.96826 57.4492C5.34604 54.6289 11.1074 52.6739 18.3394 49.9369C20.2936 49.1951 19.973 43.9741 19.107 42.9995C17.7273 41.4719 16.6794 39.6632 16.0319 37.6921C15.3845 35.721 15.1522 33.6321 15.3504 31.5627C15.2265 30.2456 15.3691 28.9166 15.7692 27.6582C16.1693 26.3999 16.8184 25.2392 17.6761 24.2484C18.5338 23.2576 19.5818 22.4579 20.7548 21.899C21.9278 21.3402 23.2007 21.0342 24.4944 21C25.789 21.0326 27.0632 21.3375 28.2375 21.8957C29.4118 22.4538 30.4612 23.2533 31.3201 24.2443C32.179 25.2352 32.8291 26.3965 33.2299 27.6556C33.6307 28.9147 33.7735 30.2447 33.6496 31.5627C33.8478 33.6321 33.6155 35.721 32.9681 37.6921C32.3207 39.6632 31.2727 41.4719 29.893 42.9995C29.027 43.9741 28.7064 49.1951 30.6606 49.9369C37.8926 52.6739 43.654 54.6289 45.0317 57.4492C46.2935 60.4702 46.9623 63.7153 47 67H2Z" stroke="white" stroke-width="4" stroke-linecap="round" stroke-linejoin="round"/>
<path d="M48 27C55.1797 27 61 21.4036 61 14.5C61 7.59644 55.1797 2 48 2C40.8203 2 35 7.59644 35 14.5C35 21.4036 40.8203 27 48 27Z" fill="#D3D93C" stroke="white" stroke-width="4" stroke-linecap="round" stroke-linejoin="round"/>
<path d="M67 33L57 24" stroke="white" stroke-width="4" stroke-linecap="round" stroke-linejoin="round"/>
<path d="M54.5694 67H64V64.5574C64 55.9007 58.0264 54.5033 52.3923 52.2869C50.5062 51.5509 50.8269 46.3535 51.6568 45.3856C52.9773 43.8643 53.9805 42.0636 54.6004 40.1014C55.2203 38.1393 55.443 36.06 55.2538 34" stroke="white" stroke-width="4" stroke-linecap="round" stroke-linejoin="round"/>
</svg>
