<svg width="34" height="28" viewBox="0 0 34 28" fill="none" xmlns="http://www.w3.org/2000/svg">
<path d="M19.0701 9.25198C18.8755 9.22795 18.6786 9.27363 18.5143 9.38097C18.35 9.4883 18.2286 9.6504 18.1717 9.8387C18.1175 10.0097 18.0672 10.1845 18.0207 10.3594L17.8039 11.1909L17.5135 12.3177C17.4244 12.6518 17.3315 12.986 17.2424 13.3202C17.1534 13.6543 17.0759 13.9224 16.9946 14.2255C16.9133 14.5286 16.801 14.9482 16.7081 15.3134L15.9646 18.0994C15.9026 18.3481 15.8368 18.6006 15.7671 18.8493C15.6974 19.098 15.6238 19.3855 15.5503 19.6536L15.287 20.625C15.1747 21.0135 15.0662 21.4293 14.9694 21.8334C14.9694 21.8645 14.9501 21.8956 14.9423 21.9266C14.8851 22.0979 14.8692 22.2803 14.8959 22.459C14.9311 22.6437 15.0262 22.8116 15.1662 22.9366C15.3062 23.0616 15.4834 23.1369 15.6703 23.1506H15.6935C15.8742 23.1506 16.0498 23.0914 16.1938 22.982C16.3378 22.8725 16.4423 22.7189 16.4912 22.5444C16.5803 22.2064 16.6732 21.8684 16.7661 21.5303C16.8436 21.2544 16.9172 20.9825 16.9907 20.7105C17.0991 20.3219 17.2037 19.9334 17.3082 19.5215L19.1708 12.5508C19.3063 12.0535 19.438 11.5522 19.558 11.0549L19.6896 10.5459C19.73 10.4191 19.7598 10.2891 19.7787 10.1573V10.1185V10.0757C19.7751 9.87698 19.7022 9.6858 19.5728 9.53533C19.4433 9.38487 19.2655 9.28462 19.0701 9.25198Z" fill="#50535C"/>
<path d="M13.1961 18.7522L13.0528 18.6395C12.836 18.4686 12.6153 18.3015 12.3945 18.1344L11.8331 17.707L11.1903 17.2019L10.5785 16.7201L9.89309 16.2033L10.5243 15.7176L11.4613 14.9871L12.4565 14.21L12.7934 13.9536C12.9715 13.8176 13.1535 13.6816 13.3277 13.5378L13.3936 13.4912C13.5983 13.3651 13.7467 13.1647 13.8079 12.9317C13.8425 12.7898 13.8396 12.6414 13.7995 12.501C13.7595 12.3606 13.6836 12.2332 13.5794 12.1312C13.4798 12.023 13.3515 11.9455 13.2096 11.9077C13.0677 11.8698 12.9179 11.8732 12.7779 11.9175C12.5868 11.9784 12.4121 12.0821 12.2668 12.2206L12.1545 12.31C11.957 12.4537 11.7672 12.6053 11.5736 12.7568L8.93279 14.8045L8.65012 15.0299C8.45651 15.1814 8.2629 15.3368 8.06541 15.4767C7.95181 15.5576 7.85796 15.6632 7.79089 15.7857C7.72383 15.9082 7.68529 16.0443 7.67819 16.1839C7.67531 16.3101 7.7014 16.4354 7.75444 16.5499C7.80748 16.6644 7.88606 16.7652 7.9841 16.8444C8.18158 17.0076 8.37133 17.1669 8.61915 17.3457C8.73919 17.4428 8.8631 17.536 9.00637 17.6293L11.7169 19.7391L12.3558 20.2287L12.4062 20.2676C12.5676 20.4194 12.7812 20.5029 13.0025 20.5007H13.0373C13.2093 20.4972 13.376 20.4405 13.5148 20.3383C13.6535 20.2362 13.7574 20.0937 13.8125 19.9301C13.8675 19.7666 13.871 19.5899 13.8223 19.4243C13.7737 19.2588 13.6753 19.1122 13.5407 19.0048C13.4168 18.9232 13.3084 18.8338 13.1961 18.7522Z" fill="#50535C"/>
<path d="M26.7719 15.6243C26.6505 15.5114 26.5211 15.4075 26.3847 15.3134L26.2375 15.2008C26.0943 15.0842 25.9471 14.9754 25.8039 14.8627L23.0275 12.7062L22.2956 12.1428C22.1095 11.9756 21.8678 11.8842 21.618 11.8864C21.4516 11.895 21.2917 11.9537 21.159 12.0549C21.0264 12.1561 20.9273 12.2951 20.8746 12.4537C20.8198 12.6224 20.8176 12.8038 20.8681 12.9739C20.9186 13.1439 21.0194 13.2945 21.1572 13.4056C21.4747 13.6427 21.7845 13.8797 22.0943 14.1206L22.5744 14.5091L23.0778 14.8977L23.5541 15.259L24.0226 15.6126C24.1582 15.7214 24.2937 15.8302 24.4331 15.9351L24.7584 16.1955L24.4679 16.4208L23.9568 16.8094L23.3605 17.2795L22.6403 17.874L21.4786 18.7444C21.347 18.8454 21.2153 18.9464 21.0914 19.0591C20.9612 19.1836 20.875 19.3473 20.8456 19.5253C20.8163 19.7033 20.8455 19.8861 20.9288 20.046C20.9964 20.1869 21.1035 20.3049 21.2369 20.3856C21.3703 20.4664 21.5243 20.5063 21.68 20.5007H21.7264C21.9148 20.4939 22.0952 20.4226 22.2376 20.2986L22.9849 19.7197L25.3082 17.9323L25.9859 17.4039L26.2298 17.2135C26.4194 17.0786 26.6005 16.9319 26.7719 16.7744C26.8477 16.7009 26.9077 16.6127 26.9483 16.5152C26.9889 16.4177 27.0093 16.3128 27.0081 16.2071C27.01 16.099 26.9901 15.9916 26.9495 15.8914C26.9089 15.7913 26.8485 15.7004 26.7719 15.6243Z" fill="#50535C"/>
<path d="M5.65677 2.87966C5.80478 2.88053 5.94916 2.92571 6.07142 3.00942C6.19368 3.09313 6.28827 3.21155 6.34306 3.34952C6.39785 3.48749 6.41035 3.63873 6.37896 3.78387C6.34757 3.92902 6.27372 4.06146 6.16687 4.16423C6.06001 4.26701 5.92503 4.33544 5.77918 4.36077C5.63334 4.38609 5.48329 4.36716 5.34823 4.3064C5.21317 4.24563 5.09926 4.1458 5.02109 4.01968C4.94292 3.89357 4.90404 3.74691 4.90943 3.59848C4.91093 3.50188 4.93152 3.40654 4.96999 3.31798C5.00847 3.22941 5.06407 3.14939 5.13357 3.08253C5.20308 3.01568 5.28511 2.96333 5.37491 2.9285C5.46472 2.89368 5.56053 2.87707 5.65677 2.87966Z" fill="#50535C"/>
<path d="M8.55333 2.87973C8.701 2.88135 8.84486 2.92706 8.96654 3.01104C9.08823 3.09503 9.18222 3.21347 9.23655 3.35127C9.29088 3.48907 9.30308 3.63999 9.27159 3.78478C9.2401 3.92956 9.16635 4.06166 9.05974 4.16422C8.95314 4.26678 8.81852 4.33516 8.67303 4.36064C8.52755 4.38611 8.37779 4.36753 8.24287 4.30726C8.10795 4.24699 7.99398 4.14777 7.91548 4.02224C7.83698 3.89671 7.79751 3.75057 7.80212 3.60245C7.8072 3.40697 7.88896 3.22141 8.02962 3.08608C8.17028 2.95075 8.35848 2.8766 8.55333 2.87973Z" fill="#50535C"/>
<path d="M11.4498 2.87977C11.5975 2.88138 11.7413 2.9271 11.863 3.01108C11.9847 3.09506 12.0787 3.2135 12.133 3.35131C12.1874 3.48911 12.1996 3.64002 12.1681 3.78481C12.1366 3.9296 12.0628 4.06169 11.9562 4.16425C11.8496 4.26682 11.715 4.33519 11.5695 4.36067C11.424 4.38615 11.2743 4.36756 11.1393 4.30729C11.0044 4.24703 10.8904 4.1478 10.812 4.02227C10.7335 3.89675 10.694 3.7506 10.6986 3.60248C10.6996 3.50521 10.7199 3.40912 10.7584 3.31985C10.7969 3.23057 10.8528 3.14991 10.9227 3.08259C10.9927 3.01527 11.0754 2.96266 11.1659 2.92783C11.2564 2.893 11.3529 2.87666 11.4498 2.87977Z" fill="#50535C"/>
<path d="M32.104 7.23544C32.3238 7.23595 32.5416 7.19288 32.7447 7.10871C32.9479 7.02454 33.1325 6.90091 33.288 6.74494C33.4434 6.58897 33.5666 6.40373 33.6505 6.19984C33.7344 5.99596 33.7773 5.77745 33.7768 5.55688V2.05989C33.7668 1.51485 33.5457 0.995116 33.1605 0.610739C32.7753 0.226362 32.2561 0.00751757 31.7129 0.000543709C22.1228 0.000543709 12.5313 0.000543709 2.9386 0.000543709C2.82547 -0.00259189 2.71238 0.00784346 2.60172 0.0316281C2.10146 0.129806 1.65326 0.405721 1.33938 0.808738C1.05636 1.15365 0.900466 1.58591 0.897954 2.03269V5.55688C0.897443 5.77745 0.940357 5.99596 1.02424 6.19984C1.10813 6.40373 1.23133 6.58897 1.38676 6.74494C1.5422 6.90091 1.72681 7.02454 1.92999 7.10871C2.13317 7.19288 2.35093 7.23595 2.57075 7.23544H32.104ZM2.57075 2.14925C2.5646 2.05527 2.58928 1.96185 2.64102 1.88327C2.69276 1.80469 2.76872 1.74526 2.85728 1.71407C2.89515 1.69724 2.93592 1.688 2.97732 1.68687H31.6974C31.7891 1.6937 31.8761 1.72984 31.9458 1.78998C32.0155 1.85013 32.0642 1.9311 32.0846 2.02103C32.0869 2.05596 32.0869 2.09101 32.0846 2.12594V5.55688H2.57075V2.14925Z" fill="#50535C"/>
<path d="M32.1 25.3149C32.0945 25.4073 32.0589 25.4953 31.9988 25.5655C31.9386 25.6356 31.8572 25.6841 31.767 25.7035C31.7323 25.7073 31.6972 25.7073 31.6625 25.7035H3.00823C2.89321 25.7035 2.7829 25.6576 2.70157 25.576C2.62023 25.4944 2.57454 25.3837 2.57454 25.2683V9.33755C2.57148 9.11563 2.48095 8.90397 2.32275 8.74886C2.16455 8.59376 1.95157 8.50785 1.73041 8.50992C1.50823 8.50992 1.29509 8.59822 1.13762 8.75551C0.980151 8.91279 0.891161 9.12626 0.890137 9.3492C0.890137 14.4004 0.890137 20.7844 0.890137 25.3926C0.892728 25.6124 0.936066 25.8299 1.01793 26.0338C1.14433 26.3821 1.36245 26.6896 1.6491 26.9235C1.99411 27.2253 2.43447 27.3946 2.89207 27.4015H31.7477C31.8583 27.4012 31.9686 27.3894 32.0768 27.3665C32.5874 27.2644 33.0417 26.9748 33.3508 26.5544C33.6135 26.2108 33.7576 25.7907 33.7612 25.3577V9.3492C33.7612 9.23899 33.7396 9.12985 33.6976 9.02803C33.6555 8.9262 33.5939 8.83368 33.5162 8.75574C33.4386 8.67781 33.3464 8.61599 33.2449 8.57381C33.1434 8.53163 33.0347 8.50992 32.9248 8.50992C32.8148 8.50941 32.7059 8.53077 32.6041 8.57276C32.5024 8.61476 32.41 8.67656 32.3323 8.7546C32.2545 8.83263 32.1929 8.92536 32.1511 9.02742C32.1092 9.12948 32.0879 9.23884 32.0884 9.3492L32.1 25.3149Z" fill="#50535C"/>
</svg>
