<svg width="28" height="25" viewBox="0 0 28 25" fill="none" xmlns="http://www.w3.org/2000/svg">
<path d="M3.57932 2.9184C2.78472 2.9184 2.00407 2.9184 1.23735 2.9184C0.5961 2.9184 0.163951 2.59777 0.0384886 2.0541C-0.142735 1.30132 0.331234 0.674011 1.13977 0.660071C2.26893 0.63219 3.3981 0.63219 4.5412 0.660071C5.22427 0.674011 5.62854 1.1201 5.6843 1.81711C5.6843 1.9147 5.71218 2.02622 5.72612 2.17956H6.13039C12.5987 2.17956 19.067 2.17956 25.5353 2.17956C26.4135 2.17956 26.999 2.55595 27.1942 3.30872C27.2639 3.58753 27.2778 3.93604 27.1942 4.21484C26.3717 7.19806 25.5353 10.1813 24.6849 13.1645C24.4479 13.973 23.9042 14.3494 23.026 14.3634C21.632 14.3634 20.238 14.3634 18.83 14.3634H8.09597C8.23537 15.0883 8.3469 15.7853 8.50024 16.4823C8.51418 16.552 8.63964 16.6217 8.72328 16.6635C8.79298 16.6914 8.89057 16.6635 8.97421 16.6635C13.6442 16.6635 18.3142 16.6635 22.9702 16.6635C23.4582 16.6635 23.9042 16.7611 24.1552 17.2351C24.5873 18.0575 24.0994 18.8661 23.1375 18.9358C23.0539 18.9358 22.9702 18.9358 22.8866 18.9358C17.8681 18.9358 12.8496 18.9358 7.8311 18.9358C6.91105 18.9358 6.5486 18.6291 6.38132 17.7369C5.46126 12.8857 4.55514 8.03448 3.63508 3.16932C3.63508 3.09962 3.59326 3.02992 3.56538 2.9184H3.57932ZM6.18615 4.45183C6.67406 6.94714 7.14803 9.41457 7.622 11.8681C7.66382 12.105 7.80322 12.0772 7.97051 12.0772C12.766 12.0772 17.5614 12.0772 22.3569 12.0772C22.5939 12.0772 22.6775 11.9935 22.7472 11.7844C23.4024 9.4285 24.0715 7.0726 24.7267 4.73063C24.7546 4.64699 24.7546 4.54941 24.7685 4.45183H6.18615Z" fill="#50535C"/>
<path d="M24.3364 22.7556C24.2249 24.1078 23.3885 25.014 22.0502 25C20.7119 25 19.7919 24.0939 19.8058 22.7417C19.8058 21.3616 20.7398 20.4973 22.0641 20.4973C23.4582 20.4973 24.2249 21.4453 24.3364 22.7556Z" fill="#50535C"/>
<path d="M10.6196 22.7556C10.5081 24.1078 9.67168 25.014 8.33341 25C6.99514 25 6.07508 24.0939 6.08902 22.7417C6.08902 21.3616 7.02302 20.4973 8.34735 20.4973C9.72744 20.4973 10.5081 21.4453 10.6196 22.7556Z" fill="#50535C"/>
</svg>
