<svg width="33" height="33" viewBox="0 0 33 33" fill="none" xmlns="http://www.w3.org/2000/svg">
<path d="M16.4931 1.10059C20.6059 1.10059 24.5502 2.73423 27.4583 5.6424C30.3665 8.55057 32.0003 12.4951 32.0003 16.6078V16.6078C32.0003 20.7206 30.3665 24.6649 27.4583 27.5731C24.5502 30.4812 20.6059 32.1151 16.4931 32.1151V32.1151C12.3803 32.1151 8.43602 30.4812 5.52784 27.5731C2.61967 24.6649 0.98584 20.7206 0.98584 16.6078V16.6078C0.98584 12.4951 2.61967 8.55057 5.52784 5.6424C8.43602 2.73423 12.3803 1.10059 16.4931 1.10059V1.10059Z" stroke="white" stroke-miterlimit="10"/>
<path fill-rule="evenodd" clip-rule="evenodd" d="M17.7572 13.2349V11.8703C17.749 11.7664 17.7635 11.662 17.7996 11.5642C17.8357 11.4664 17.8925 11.3776 17.9662 11.3039C18.0399 11.2302 18.1287 11.1734 18.2265 11.1373C18.3242 11.1013 18.4286 11.0868 18.5325 11.0949H20.4399V8.17956H17.8037C17.3253 8.13853 16.8437 8.20228 16.3924 8.3664C15.9412 8.53052 15.5311 8.79105 15.1909 9.12984C14.8506 9.46862 14.5883 9.87757 14.4222 10.3281C14.2562 10.7786 14.1903 11.26 14.2292 11.7385V13.2893H12.5312V16.693H14.2448V25.222H17.6486V16.693H20.1686L20.2771 15.3594L20.4787 13.2893L17.7572 13.2349Z" fill="white"/>
</svg>
