<svg width="38" height="23" viewBox="0 0 38 23" fill="none" xmlns="http://www.w3.org/2000/svg">
<path d="M18.9376 0C21.275 0 23.6306 0 25.968 0C27.7758 0 29.5288 0.27391 31.1905 1.0226C33.7835 2.19128 35.6644 4.09038 36.8331 6.66513C37.4905 8.10773 37.8374 9.64162 37.8374 11.212C37.8374 14.0242 36.9974 16.5624 35.1348 18.7354C33.5827 20.5432 31.647 21.7849 29.3279 22.3145C28.3419 22.5519 27.301 22.6797 26.2784 22.698C21.348 22.7345 16.4359 22.7345 11.5056 22.698C9.02211 22.698 6.68475 22.0589 4.65782 20.5615C2.11959 18.7172 0.567433 16.2155 0.129177 13.0929C-0.418642 9.05728 0.7683 5.58776 3.83609 2.8304C5.73519 1.1139 7.99952 0.182606 10.5195 0.0913032C13.3134 0 16.1255 0.0730426 18.9194 0.0730426V0H18.9376ZM18.9011 19.9041C21.3663 19.9041 23.8498 19.9224 26.3149 19.9041C28.9627 19.8676 31.2453 18.9545 32.9618 16.9094C34.6783 14.8642 35.2992 12.5085 34.8609 9.87901C34.5505 8.10773 33.7835 6.55557 32.487 5.29559C30.7523 3.61561 28.634 2.8304 26.2236 2.8304C21.348 2.8304 16.4542 2.8304 11.5786 2.8304C10.976 2.8304 10.3734 2.88518 9.7708 2.99475C7.59778 3.39648 5.78998 4.41908 4.49347 6.22688C2.97784 8.34511 2.41176 10.719 3.03262 13.2937C3.54392 15.4485 4.69434 17.1833 6.55692 18.4432C8.0543 19.4476 9.73428 19.8858 11.5238 19.9041C13.989 19.9224 16.4542 19.9041 18.9011 19.9041Z" fill="#50535C"/>
<path d="M9.84396 9.89702C9.84396 9.36746 9.84396 8.81965 9.84396 8.27183C9.84396 7.46836 10.2092 6.92054 10.83 6.73793C11.7796 6.44576 12.6196 7.08488 12.6561 8.12574C12.6744 8.71008 12.6561 9.31268 12.6561 9.97007C12.8387 9.97007 13.003 9.97007 13.1674 9.97007C13.7517 9.98833 14.3178 9.97007 14.9022 10.0614C15.5595 10.1527 15.943 10.664 15.9613 11.3396C15.9795 11.997 15.5595 12.5996 14.9387 12.7092C14.5004 12.8005 14.0439 12.7822 13.6056 12.8005C13.3135 12.8005 13.003 12.8005 12.6378 12.8005C12.6378 13.4213 12.6378 14.0057 12.6378 14.59C12.6378 15.3935 12.2361 15.8865 11.5239 16.0509C10.757 16.2152 10.0448 15.777 9.89874 15.01C9.8257 14.6083 9.84396 14.17 9.8257 13.75C9.8257 13.4578 9.8257 13.1474 9.8257 12.8005C9.20483 12.8005 8.63875 12.8005 8.07267 12.8005C7.26921 12.8005 6.73965 12.3805 6.59356 11.7048C6.37443 10.7735 7.15964 9.89702 8.18224 9.93354C8.7118 9.93354 9.25962 9.93354 9.84396 9.93354V9.89702Z" fill="#50535C"/>
<path d="M27.4473 10.4087C26.3881 10.4087 25.5664 9.62351 25.5664 8.54613C25.5664 7.48702 26.3516 6.66529 27.4107 6.64703C28.4881 6.62877 29.3281 7.4505 29.3281 8.52787C29.3281 9.58699 28.5246 10.4087 27.4655 10.4087H27.4473Z" fill="#50535C"/>
<path d="M23.5939 16.0875C22.5165 16.0328 21.7313 15.2293 21.7678 14.1702C21.8043 13.0928 22.6626 12.2711 23.7217 12.3441C24.7991 12.3989 25.5843 13.2389 25.5295 14.2797C25.4747 15.3754 24.653 16.1423 23.5939 16.0875Z" fill="#50535C"/>
</svg>
