<svg width="89" height="89" viewBox="0 0 89 89" fill="none" xmlns="http://www.w3.org/2000/svg">
<g clip-path="url(#clip0_2807_918)">
<path d="M41.6602 70.4237C41.6994 69.3042 41.509 68.1886 41.1008 67.1455C40.6926 66.1024 40.0752 65.1539 39.2866 64.3584C37.3343 62.3381 35.4545 60.2499 33.5203 58.2161C33.3532 58.0541 33.2224 57.8585 33.1365 57.6422C33.0506 57.4259 33.0116 57.1938 33.022 56.9613C33.0402 52.6007 33.0402 48.2371 33.022 43.8704C33.0406 42.6643 32.6241 41.4918 31.8488 40.5676C31.0735 39.6434 29.9913 39.0294 28.8003 38.8379C27.8211 38.7106 26.8256 38.8386 25.9104 39.2094C25.8953 39.1695 25.8832 39.1286 25.8741 39.087C25.8741 36.3692 25.8741 33.6514 25.847 30.9335C25.863 29.724 25.4428 28.5492 24.6633 27.6242C23.8839 26.6992 22.7973 26.0858 21.6026 25.8965C20.6101 25.7905 19.6066 25.9241 18.6764 26.286C18.6764 24.8411 18.7081 23.4686 18.6764 22.0961C18.6565 21.3473 18.468 20.6127 18.125 19.9468C17.782 19.2809 17.2933 18.7009 16.6953 18.2499C16.0972 17.799 15.4051 17.4887 14.6706 17.3421C13.9361 17.1955 13.1779 17.2164 12.4526 17.4033C10.5863 17.8562 9.44482 19.1291 8.79254 20.9863C4.8381 18.5719 -0.0404152 21.4936 0.00941179 26.1637C0.100006 34.0228 0.0411198 41.8819 0.00941179 49.741C0.00717634 50.3359 0.163532 50.9207 0.462384 51.4351C3.1621 56.3604 5.84822 61.2857 8.52076 66.211C8.77879 66.6827 9.10377 67.1145 9.48559 67.4929C12.9961 70.9944 16.4931 74.514 20.0172 78.0064C20.5302 78.4859 20.9337 79.0704 21.2003 79.72C21.4668 80.3696 21.5901 81.069 21.5618 81.7706C21.5211 83.5327 21.5618 85.2948 21.5618 87.0568C21.5618 88.5335 22.0148 88.9955 23.4688 88.9955H39.6988C41.2072 88.9955 41.6512 88.5426 41.6512 87.007C41.6421 81.4807 41.6013 75.9499 41.6602 70.4237ZM25.8605 43.9293C25.84 43.6358 25.8798 43.3411 25.9777 43.0636C26.0755 42.7861 26.2292 42.5315 26.4293 42.3158C26.6294 42.1 26.8717 41.9276 27.1411 41.8092C27.4105 41.6908 27.7013 41.6289 27.9955 41.6273C28.2898 41.6258 28.5813 41.6846 28.8519 41.8002C29.1225 41.9157 29.3666 42.0856 29.5689 42.2992C29.7713 42.5129 29.9277 42.7658 30.0285 43.0422C30.1292 43.3187 30.1722 43.6129 30.1547 43.9067C30.1547 47.3946 30.1547 50.887 30.1547 54.6014C28.6961 53.0386 27.3825 51.6253 26.078 50.2211C25.9921 50.1204 25.9294 50.0021 25.8942 49.8745C25.859 49.747 25.8521 49.6133 25.8741 49.4828C25.856 47.6392 25.8424 45.782 25.8605 43.9293ZM18.6855 44.0697C18.6855 39.6442 18.6855 35.2187 18.6855 30.7977C18.6919 30.5197 18.7532 30.2457 18.8659 29.9914C18.9786 29.7372 19.1404 29.5077 19.342 29.3162C19.5436 29.1247 19.7811 28.9749 20.0408 28.8754C20.3004 28.776 20.5772 28.7288 20.8552 28.7366C21.1403 28.7413 21.4216 28.8027 21.6827 28.9172C21.9438 29.0318 22.1795 29.1972 22.376 29.4038C22.5725 29.6104 22.7259 29.8541 22.8272 30.1206C22.9285 30.3872 22.9757 30.6712 22.966 30.9562C22.966 34.512 22.966 38.0679 22.966 41.6237V46.9733C21.7974 45.5283 20.6378 44.5408 18.921 44.5182C18.5903 44.5137 18.6855 44.2509 18.6855 44.0697ZM11.5058 43.4356C11.5058 36.4719 11.5058 29.5097 11.5058 22.549C11.5058 21.0905 12.4118 20.112 13.6846 20.1302C14.9575 20.1483 15.8046 21.1086 15.8046 22.5173C15.8046 30.0185 15.8046 37.5183 15.8046 45.0165C15.8199 45.2063 15.7934 45.3972 15.7269 45.5757C15.6604 45.7541 15.5554 45.9158 15.4195 46.0492C14.9632 46.5476 14.6379 47.1515 14.4728 47.8068C13.4989 46.5656 12.602 45.4151 11.6825 44.2781C11.5219 44.0286 11.459 43.7286 11.5058 43.4356ZM37.9549 86.1418C33.709 86.1116 29.4647 86.1116 25.2218 86.1418C24.5333 86.1418 24.3974 85.9606 24.402 85.3083C24.4903 83.6357 24.4676 81.9591 24.334 80.2894C24.0895 78.6473 23.2902 77.1383 22.0692 76.0134C18.6296 72.5768 15.19 69.1342 11.7505 65.6856C11.4268 65.3771 11.1519 65.0212 10.9351 64.6302C8.3743 59.9162 5.80746 55.2053 3.23457 50.4974C3.01951 50.1436 2.90373 49.7383 2.89937 49.3242C2.89937 41.5512 2.89937 33.7782 2.89937 26.0052C2.87089 25.382 3.0464 24.7666 3.39929 24.2522C3.75219 23.7378 4.26321 23.3525 4.85485 23.1548C5.4465 22.9571 6.08648 22.9577 6.67775 23.1565C7.26901 23.3554 7.7793 23.7417 8.1312 24.2567C8.49375 24.8079 8.67289 25.4594 8.64306 26.1184C8.64306 29.1081 8.64306 32.0977 8.64306 35.0873C8.64306 38.0769 8.64306 41.1254 8.64306 44.1468C8.63041 44.7147 8.82346 45.2681 9.18663 45.705C14.2146 52.0859 19.232 58.4758 24.2389 64.8748C24.6602 65.4183 24.9274 65.4636 25.3894 64.9971C25.8515 64.5305 26.8027 64.2497 26.8299 63.6382C26.8299 63.1354 26.1278 62.5918 25.7246 62.0799L17.6799 51.879C17.1635 51.2176 17.0412 48.7082 17.4941 48.0333C18.0513 47.1907 19.2517 47.1273 20.0444 47.9834C21.8563 49.8904 23.641 51.8201 25.4393 53.7452C29.353 57.9398 33.2485 62.1524 37.2166 66.3243C37.7424 66.8517 38.155 67.4808 38.4292 68.1733C38.7033 68.8657 38.8333 69.6068 38.811 70.3512C38.7657 75.3339 38.7793 80.3166 38.811 85.3265C38.7929 86.0105 38.6162 86.1418 37.9549 86.1418Z" fill="#615B5B"/>
<path d="M89 26.0595C89.0012 25.4027 88.905 24.7494 88.7146 24.1208C87.8359 21.19 84.1487 18.8119 80.2577 20.95C80.1918 20.8515 80.1328 20.7485 80.081 20.6419C79.0392 18.1732 76.8468 16.8642 74.5004 17.3217C71.9411 17.8245 70.3512 19.8356 70.3421 22.5942C70.3421 23.8127 70.3421 25.0358 70.3421 26.2497C70.2243 26.2497 70.1609 26.2497 70.1111 26.2497C66.972 24.8319 62.9541 27.2327 63.1444 31.4091C63.2621 33.9729 63.167 36.5458 63.167 39.2002C58.977 37.6556 55.7202 40.8037 55.9195 44.7129C56.1459 48.7625 55.9602 52.8392 55.9783 56.9024C55.9945 57.1526 55.9567 57.4035 55.8677 57.6379C55.7786 57.8723 55.6402 58.0849 55.462 58.2613C53.4417 60.3812 51.4622 62.5419 49.4556 64.6754C48.1336 65.9986 47.3838 67.7878 47.3673 69.6581C47.3492 75.5437 47.3492 81.4323 47.3673 87.324C47.3673 88.4836 47.9019 89.0091 49.0796 89.0091H65.7535C66.9176 89.0091 67.4431 88.4746 67.4476 87.3059C67.4476 85.4532 67.4838 83.6006 67.4476 81.7479C67.4244 81.0462 67.5523 80.3477 67.8227 79.6998C68.0931 79.0519 68.4997 78.4697 69.0149 77.9928C72.5209 74.5275 75.9952 71.0261 79.4831 67.5427C79.8503 67.1925 80.1633 66.7894 80.4117 66.3468C83.1295 61.346 85.8579 56.3513 88.5969 51.3625C88.858 50.8947 88.9938 50.3673 88.991 49.8315C88.9879 41.9014 88.991 33.9774 89 26.0595ZM73.2139 22.4357C73.1943 22.1442 73.2339 21.8516 73.3306 21.5759C73.4272 21.3001 73.5787 21.0468 73.7761 20.8313C73.9734 20.6157 74.2124 20.4425 74.4786 20.3219C74.7448 20.2014 75.0326 20.1362 75.3248 20.1301C76.575 20.1301 77.5081 21.0677 77.5126 22.4493C77.5126 29.4704 77.5126 36.4929 77.5126 43.517C77.5465 43.7821 77.4802 44.0502 77.3269 44.269C76.421 45.4105 75.515 46.561 74.5457 47.7886C74.338 47.0917 73.9686 46.4539 73.4676 45.9269C73.3658 45.8201 73.2893 45.6918 73.2438 45.5514C73.1983 45.411 73.185 45.2622 73.2049 45.116C73.2079 37.5574 73.2109 29.9973 73.2139 22.4357ZM66.0389 31.1101C66.0389 29.3526 67.5518 28.2564 69.033 28.9223C69.4378 29.0875 69.781 29.3748 70.0149 29.7442C70.2487 30.1136 70.3615 30.5468 70.3376 30.9833C70.3376 35.3077 70.3376 39.6336 70.3376 43.961C70.3376 44.192 70.4735 44.5136 70.0069 44.5272C68.4894 44.5634 67.3751 45.3652 66.4556 46.4885C66.3768 46.6103 66.3129 46.7411 66.2654 46.8781L66.057 46.7377C66.057 46.6018 66.0343 46.4659 66.0343 46.33C66.0343 41.2567 66.0358 36.1834 66.0389 31.1101ZM58.8728 43.8251C58.8728 43.2568 59.0986 42.7119 59.5004 42.31C59.9022 41.9082 60.4472 41.6825 61.0154 41.6825C61.5836 41.6825 62.1286 41.9082 62.5304 42.31C62.9322 42.7119 63.158 43.2568 63.158 43.8251C63.1851 45.7321 63.158 47.6436 63.158 49.5552C63.1665 49.6862 63.1475 49.8175 63.1022 49.9408C63.057 50.064 62.9865 50.1765 62.8952 50.2709C61.5861 51.657 60.2906 53.0521 58.8502 54.6013C58.8638 50.8688 58.8457 47.3447 58.8728 43.8251ZM85.7613 50.5925C83.2065 55.24 80.6623 59.8965 78.1287 64.5621C77.9001 64.9794 77.6117 65.3609 77.2726 65.6946C73.8662 69.0964 70.478 72.5163 67.0535 75.8955C66.24 76.6477 65.5993 77.5672 65.1755 78.5909C64.7516 79.6145 64.5548 80.7178 64.5984 81.8249C64.6346 83.0796 64.5984 84.3344 64.5984 85.5891C64.5984 86.0421 64.4761 86.1372 64.0458 86.1372C59.6248 86.1372 55.2007 86.1372 50.7737 86.1372C50.3207 86.1372 50.2256 86.0149 50.2301 85.5846C50.2301 80.235 50.2301 74.8854 50.2301 69.5358C50.2525 68.4766 50.6862 67.4677 51.4396 66.7228C57.2557 60.496 63.0674 54.2676 68.8745 48.0377C69.0928 47.749 69.3998 47.54 69.7483 47.4426C70.0969 47.3452 70.4678 47.3649 70.8041 47.4987C71.5606 47.784 71.6874 48.4046 71.7599 49.152C71.8301 49.8406 71.7543 50.5362 71.5373 51.1934C71.3203 51.8506 70.967 52.4547 70.5006 52.9661C67.7828 56.2818 65.1692 59.7153 62.483 63.0764C62.0618 63.6018 62.0572 63.8827 62.637 64.2224C63.2168 64.5621 63.697 65.4273 64.2813 65.3186C64.7705 65.2235 65.1239 64.3855 65.5315 63.8691C70.2575 57.8597 74.9851 51.8487 79.7141 45.8363C80.1498 45.3066 80.3798 44.6375 80.3618 43.9519C80.3407 37.9455 80.3407 31.9376 80.3618 25.9281C80.3463 25.3026 80.5361 24.6892 80.9023 24.1818C81.2684 23.6744 81.7907 23.301 82.3893 23.1186C82.9878 22.9362 83.6296 22.9549 84.2165 23.1719C84.8034 23.3889 85.303 23.7922 85.639 24.3201C85.9734 24.8878 86.1311 25.5422 86.0919 26.1999C86.0919 30.023 86.0919 33.8506 86.0919 37.6782C86.0919 41.5058 86.0919 45.27 86.0919 49.066C86.1183 49.5951 86.0042 50.1217 85.7613 50.5925Z" fill="#615B5B"/>
<path d="M58.8729 1.25477C54.094 -0.896845 49.6322 -0.212861 45.5509 3.03495C44.5 3.87295 44.5272 3.88201 43.431 3.00324C39.5898 -0.0724424 35.3183 -0.865145 30.7478 0.992042C22.3724 4.39839 20.2389 15.4509 26.7979 21.6929C32.2336 26.8613 37.864 31.8213 43.4129 36.8629C44.183 37.565 44.8443 37.5515 45.6325 36.8312C51.1406 31.8485 56.6669 26.8432 62.1297 21.7971C63.3173 20.7191 64.2749 19.4124 64.9451 17.9553C65.6153 16.4981 65.9843 14.9206 66.0298 13.3174C66.0389 7.77758 63.2531 3.24785 58.8729 1.25477ZM60.0189 19.8719C55.0181 24.456 49.9765 29.0039 44.9938 33.597C44.6223 33.9367 44.4276 33.9322 44.0607 33.597C39.0327 28.9993 33.9684 24.4379 28.954 19.8266C27.4934 18.4605 26.486 16.6799 26.0674 14.7243C25.6487 12.7687 25.8388 10.7317 26.6122 8.88736C27.3502 7.07781 28.6251 5.53795 30.2652 4.47533C31.9053 3.41271 33.8317 2.87838 35.7849 2.94435C37.8025 3.002 39.7448 3.72321 41.3111 4.99632C42.0313 5.57612 42.7244 6.18764 43.4446 6.77651C44.1648 7.36537 44.8035 7.41973 45.6098 6.77651C46.6743 5.91133 47.6437 4.91932 48.8395 4.22627C55.2355 0.525487 63.158 5.17751 63.1761 13.2268C63.1279 14.4907 62.8231 15.7315 62.2804 16.8738C61.7376 18.0162 60.9682 19.0362 60.0189 19.8719Z" fill="#615B5B"/>
<path d="M63.1625 13.2132C63.1184 14.4792 62.8169 15.7228 62.2765 16.8684C61.736 18.014 60.9678 19.0375 60.0188 19.8765C55.018 24.456 49.9764 29.0039 44.9937 33.597C44.6223 33.9367 44.4275 33.9322 44.0606 33.597C39.0326 28.9993 33.9684 24.4379 28.954 19.8266C27.4934 18.4605 26.486 16.6799 26.0673 14.7243C25.6487 12.7687 25.8388 10.7317 26.6121 8.88736C27.3501 7.07781 28.6251 5.53796 30.2652 4.47533C31.9053 3.41271 33.8317 2.87838 35.7848 2.94435C37.8024 3.00201 39.7448 3.72322 41.3111 4.99632C42.0313 5.57612 42.7244 6.18765 43.4446 6.77651C44.1648 7.36537 44.8035 7.41973 45.6098 6.77651C46.6743 5.91133 47.6436 4.91932 48.8395 4.22627C55.2219 0.530019 63.1443 5.15939 63.1625 13.2132Z" fill="#D3D93C"/>
</g>
<defs>
<clipPath id="clip0_2807_918">
<rect width="89" height="89" fill="white"/>
</clipPath>
</defs>
</svg>
