<svg width="33" height="33" viewBox="0 0 33 33" fill="none" xmlns="http://www.w3.org/2000/svg">
<path d="M16.5072 1C20.62 1 24.5643 2.63383 27.4725 5.542C30.3807 8.45018 32.0145 12.3945 32.0145 16.5072V16.5072C32.0145 20.62 30.3807 24.5643 27.4725 27.4725C24.5643 30.3807 20.62 32.0145 16.5072 32.0145V32.0145C12.3945 32.0145 8.45018 30.3807 5.542 27.4725C2.63383 24.5643 1 20.62 1 16.5072V16.5072C1 12.3945 2.63383 8.45018 5.542 5.542C8.45018 2.63383 12.3945 1 16.5072 1V1Z" stroke="white" stroke-miterlimit="10"/>
<path d="M19.981 24.6951H13.0027C11.7877 24.681 10.6263 24.192 9.76706 23.3328C8.90783 22.4735 8.41888 21.3124 8.40479 20.0973V13.119C8.40684 11.9002 8.89198 10.7318 9.75381 9.86994C10.6156 9.00811 11.7839 8.52305 13.0027 8.521H19.981C20.5851 8.51998 21.1834 8.63823 21.7417 8.86893C22.3 9.09964 22.8073 9.43824 23.2344 9.86539C23.6616 10.2926 24.0003 10.7999 24.231 11.3582C24.4617 11.9165 24.5799 12.5149 24.5789 13.119V20.0973C24.5769 21.3161 24.0917 22.4844 23.2299 23.3462C22.3681 24.208 21.1998 24.6931 19.981 24.6951ZM13.0027 9.89341C12.1506 9.89749 11.3345 10.2379 10.7319 10.8405C10.1293 11.443 9.78903 12.2591 9.78495 13.1113V20.0895C9.78905 20.9402 10.1299 21.7546 10.7329 22.3547C11.3359 22.9548 12.152 23.2917 13.0027 23.2917H19.981C20.8317 23.2917 21.6479 22.9548 22.2509 22.3547C22.8539 21.7546 23.1947 20.9402 23.1988 20.0895V13.1577C23.2018 12.7341 23.1214 12.3141 22.9621 11.9215C22.8029 11.529 22.5678 11.1719 22.2704 10.8702C21.9731 10.5685 21.6193 10.3283 21.2291 10.1633C20.8389 9.99843 20.4201 9.91198 19.9965 9.90893H13.0182L13.0027 9.89341Z" fill="white"/>
<path d="M16.5071 20.7486C15.6882 20.7502 14.8873 20.5089 14.2055 20.0553C13.5238 19.6016 12.9919 18.9559 12.6771 18.1999C12.3623 17.444 12.2787 16.6116 12.4369 15.8082C12.5952 15.0047 12.9882 14.2661 13.5662 13.686C14.1442 13.1058 14.8811 12.7101 15.684 12.5489C16.4868 12.3876 17.3195 12.468 18.0767 12.78C18.8338 13.0919 19.4814 13.6215 19.9377 14.3016C20.3939 14.9816 20.6382 15.7817 20.6398 16.6006C20.6418 17.1446 20.5365 17.6835 20.3297 18.1867C20.1229 18.6899 19.8188 19.1474 19.4349 19.5328C19.0509 19.9182 18.5946 20.2241 18.0922 20.4327C17.5898 20.6414 17.0511 20.7487 16.5071 20.7486ZM16.5071 13.8635C15.9624 13.862 15.4295 14.022 14.9758 14.3235C14.5221 14.625 14.1681 15.0545 13.9586 15.5574C13.7491 16.0602 13.6934 16.6138 13.7987 17.1482C13.9041 17.6827 14.1656 18.1739 14.5502 18.5596C14.9349 18.9453 15.4253 19.2083 15.9595 19.3151C16.4936 19.4219 17.0475 19.3678 17.5509 19.1597C18.0543 18.9516 18.4847 18.5988 18.7875 18.146C19.0903 17.6932 19.2519 17.1608 19.2519 16.6161C19.2529 16.255 19.1827 15.8971 19.0452 15.5632C18.9077 15.2293 18.7057 14.9258 18.4507 14.6701C18.1957 14.4144 17.8928 14.2115 17.5593 14.0731C17.2258 13.9347 16.8682 13.8635 16.5071 13.8635Z" fill="white"/>
<path d="M21.8106 12.2425C21.8013 12.4253 21.7392 12.6016 21.6319 12.7498C21.5245 12.898 21.3765 13.0119 21.2057 13.0777C21.0349 13.1434 20.8486 13.158 20.6696 13.1201C20.4905 13.0821 20.3264 12.993 20.197 12.8636C20.0676 12.7342 19.9785 12.5701 19.9405 12.3911C19.9025 12.212 19.9173 12.0258 19.9831 11.855C20.0488 11.6842 20.1627 11.5361 20.3109 11.4287C20.4592 11.3213 20.6353 11.2592 20.8181 11.25C21.0813 11.25 21.3338 11.3546 21.5199 11.5408C21.706 11.7269 21.8106 11.9793 21.8106 12.2425Z" fill="white"/>
</svg>
