<svg width="64" height="38" viewBox="0 0 64 38" fill="none" xmlns="http://www.w3.org/2000/svg">
<path d="M31.6664 0C35.5748 0 39.5137 0 43.4221 0C46.445 0 49.3763 0.458015 52.1549 1.70992C56.4908 3.66412 59.6358 6.83969 61.59 11.145C62.6893 13.5573 63.2694 16.1221 63.2694 18.7481C63.2694 23.4504 61.8649 27.6947 58.7504 31.3282C56.1549 34.3511 52.9183 36.4275 49.0404 37.313C47.3916 37.7099 45.6511 37.9237 43.9412 37.9542C35.6969 38.0153 27.4832 38.0153 19.2389 37.9542C15.0862 37.9542 11.1778 36.8855 7.78852 34.3817C3.54425 31.2977 0.948827 27.1145 0.216003 21.8931C-0.700028 15.145 1.2847 9.34351 6.41448 4.73282C9.59005 1.8626 13.3763 0.305343 17.59 0.152672C22.2618 0 26.9641 0.122137 31.6358 0.122137V0H31.6664ZM31.6053 33.2824C35.7275 33.2824 39.8801 33.313 44.0023 33.2824C48.4297 33.2214 52.2465 31.6947 55.1168 28.2748C57.987 24.855 59.0252 20.916 58.2923 16.5191C57.7733 13.5573 56.4908 10.9618 54.3229 8.85496C51.4221 6.0458 47.8801 4.73282 43.8496 4.73282C35.6969 4.73282 27.5137 4.73282 19.361 4.73282C18.3534 4.73282 17.3458 4.82443 16.3381 5.00763C12.7046 5.67939 9.68165 7.38931 7.51371 10.4122C4.97936 13.9542 4.0328 17.9237 5.07096 22.229C5.92593 25.8321 7.84959 28.7328 10.9641 30.8397C13.4679 32.5191 16.2771 33.2519 19.2694 33.2824C23.3916 33.313 27.5137 33.2824 31.6053 33.2824Z" fill="#1EC39B"/>
<path d="M16.4607 16.5493C16.4607 15.6638 16.4607 14.7477 16.4607 13.8317C16.4607 12.4882 17.0714 11.5722 18.1096 11.2668C19.6974 10.7783 21.1019 11.847 21.163 13.5874C21.1935 14.5645 21.163 15.5722 21.163 16.6714C21.4684 16.6714 21.7432 16.6714 22.018 16.6714C22.9951 16.7019 23.9416 16.6714 24.9187 16.8241C26.018 16.9767 26.6592 17.8317 26.6897 18.9615C26.7203 20.0607 26.018 21.0683 24.9798 21.2515C24.247 21.4042 23.4836 21.3737 22.7508 21.4042C22.2622 21.4042 21.7432 21.4042 21.1325 21.4042C21.1325 22.4424 21.1325 23.4195 21.1325 24.3966C21.1325 25.7401 20.4607 26.5645 19.2699 26.8393C17.9874 27.1141 16.7966 26.3813 16.5523 25.0989C16.4302 24.4271 16.4607 23.6943 16.4302 22.992C16.4302 22.5035 16.4302 21.9844 16.4302 21.4042C15.392 21.4042 14.4455 21.4042 13.4989 21.4042C12.1554 21.4042 11.2699 20.7019 11.0256 19.5722C10.6592 18.0149 11.9722 16.5493 13.6821 16.6103C14.5676 16.6103 15.4836 16.6103 16.4607 16.6103V16.5493Z" fill="#1EC39B"/>
<path d="M45.896 17.4048C44.125 17.4048 42.751 16.0919 42.751 14.2903C42.751 12.5193 44.064 11.1453 45.8349 11.1148C47.6365 11.0842 49.0411 12.4583 49.0411 14.2598C49.0411 16.0308 47.6975 17.4048 45.9265 17.4048H45.896Z" fill="#1EC39B"/>
<path d="M39.4529 26.9009C37.6514 26.8093 36.3384 25.4658 36.3995 23.6948C36.4606 21.8932 37.8957 20.5192 39.6667 20.6413C41.4682 20.7329 42.7812 22.1375 42.6896 23.878C42.598 25.71 41.2239 26.9925 39.4529 26.9009Z" fill="#1EC39B"/>
</svg>
