<svg width="31" height="31" viewBox="0 0 31 31" fill="none" xmlns="http://www.w3.org/2000/svg">
<path d="M12.5375 21.048V21.5317C12.5375 23.3974 12.5375 25.2632 12.5375 27.1289C12.5375 28.3036 12.1748 29.3401 11.1728 30.0657C10.6718 30.4285 10.1017 30.6531 9.49709 30.6531C8.49512 30.6531 7.47588 30.7394 6.49119 30.584C4.86731 30.3076 3.88262 28.9428 3.88262 27.1634C3.88262 25.2804 3.88262 23.4147 3.88262 21.5317C3.88262 21.3935 3.88262 21.238 3.88262 21.1171C3.32981 20.9616 2.777 20.8752 2.27602 20.6507C0.755794 19.9597 0.0647823 18.6813 0.0129565 17.0574C-0.00431882 15.2262 -0.00431882 13.3778 0.0129565 11.5466C0.047507 9.2317 1.74048 7.57327 4.07265 7.556C6.57757 7.556 9.08248 7.53872 11.5874 7.556C14.3342 7.57327 16.9427 7.05501 19.3958 5.79392C20.9333 5.01653 22.2635 3.98001 23.4901 2.77074C24.1811 2.09701 24.8548 1.40599 25.5458 0.732258C26.3232 -0.0278549 27.1179 -0.166057 27.9989 0.300376C28.7418 0.697707 28.9663 1.37144 28.9663 2.14883C28.9663 4.87833 28.9663 7.59055 28.9663 10.32C28.9663 10.4755 29.0354 10.7174 29.1391 10.8038C30.0374 11.4084 30.5557 12.2549 30.763 13.2914C31.0221 14.6043 30.8493 15.8654 30.0374 16.9538C29.8301 17.2302 29.5537 17.4893 29.26 17.6966C29.0354 17.8521 28.9491 18.0075 28.9491 18.2839C28.9491 21.0134 28.9491 23.7257 28.9491 26.4552C28.9491 27.2671 28.6899 27.9581 27.8953 28.3382C27.0488 28.7528 26.2714 28.5973 25.5286 27.8545C24.613 26.9561 23.7147 26.0406 22.7645 25.1595C20.3114 22.8792 17.3919 21.6008 14.075 21.1516C13.5913 21.0825 13.0903 21.0825 12.5375 21.048ZM26.0468 24.2957V4.29097C22.3154 8.12608 17.8756 10.2337 12.5721 10.4237V18.1803C17.9102 18.3185 22.3154 20.5297 26.0468 24.2957ZM9.65257 10.4237H9.23796C7.54498 10.4237 5.83473 10.4237 4.14175 10.4237C3.24344 10.4237 2.89793 10.7692 2.89793 11.6502C2.89793 13.3778 2.89793 15.1053 2.89793 16.8328C2.89793 17.8175 3.19161 18.0939 4.1763 18.0939C5.86928 18.0939 7.54498 18.0939 9.23796 18.0939C9.37616 18.0939 9.51436 18.0939 9.66984 18.0766V10.4237H9.65257ZM9.66984 21.0825H6.78487C6.78487 21.0825 6.75032 21.1516 6.75032 21.1862C6.75032 23.2074 6.75032 25.2286 6.75032 27.2498C6.75032 27.6472 6.95762 27.8199 7.35495 27.8372C7.89049 27.8372 8.42602 27.8372 8.96156 27.8372C9.47981 27.8372 9.65257 27.6472 9.65257 27.1289C9.65257 26.006 9.65257 24.8831 9.65257 23.7602C9.65257 22.8792 9.65257 21.9981 9.65257 21.0825H9.66984Z" fill="#50535C"/>
</svg>
