<svg width="67" height="67" viewBox="0 0 67 67" fill="none" xmlns="http://www.w3.org/2000/svg">
<path d="M27.8321 30.2384C27.8263 30.1591 27.8263 30.0795 27.8321 30.0002C27.9837 29.3923 27.957 28.7554 27.7551 28.1613C27.5533 27.5672 27.1842 27.0397 26.6896 26.6381C26.278 26.1993 25.8963 25.7349 25.547 25.2479C25.354 25.0558 25.2192 24.816 25.1574 24.5546C25.0955 24.2933 25.1089 24.0205 25.1962 23.766C25.2835 23.5116 25.4413 23.2853 25.6522 23.1119C25.8632 22.9386 26.1193 22.8248 26.3925 22.7831C27.4779 22.4895 28.5576 22.1904 29.6488 21.919C29.7832 21.8878 29.9098 21.8304 30.0207 21.7505C30.1317 21.6705 30.2248 21.5695 30.2943 21.4537C30.9113 20.5398 31.534 19.6259 32.1624 18.723C32.8936 17.6651 34.099 17.6706 34.836 18.723C35.453 19.6148 36.0699 20.5065 36.6755 21.4149C36.7493 21.5368 36.8475 21.6431 36.9642 21.7278C37.081 21.8124 37.2139 21.8736 37.3553 21.9079C38.4293 22.1738 39.4919 22.4618 40.5602 22.7664C41.8913 23.132 42.274 24.2398 41.4 25.2922C40.6973 26.1507 40.0003 27.0092 39.2919 27.8567C39.2125 27.946 39.1523 28.0499 39.115 28.1621C39.0777 28.2744 39.0641 28.3928 39.0749 28.5103C39.132 29.6181 39.1663 30.6649 39.2291 31.745C39.3034 33.0688 38.3208 33.8055 37.0468 33.3513C35.9728 32.9747 34.9045 32.5925 33.842 32.1881C33.729 32.1417 33.6076 32.1177 33.4849 32.1177C33.3622 32.1177 33.2408 32.1417 33.1279 32.1881C32.0824 32.5814 31.0256 32.9525 29.9687 33.3291C28.6605 33.8 27.6836 33.0688 27.7579 31.7173C27.7921 31.2244 27.8093 30.7092 27.8321 30.2384Z" fill="#D3D93C"/>
<path d="M66.9289 48.5031C66.9198 48.219 66.8485 47.9404 66.7199 47.6869C66.5913 47.4334 66.4087 47.2112 66.1848 47.036L57.9484 38.8066C57.349 38.2022 57.349 38.1764 57.7159 37.386C57.9949 36.7764 58.274 36.1565 58.4961 35.521C59.8027 31.9013 60.3121 28.0423 59.9894 24.2076C59.7084 20.8528 58.7931 17.5817 57.2922 14.568C55.7147 11.3963 53.5146 8.57472 50.8229 6.27144C47.8014 3.67631 44.2419 1.78321 40.4008 0.728385C38.8665 0.331319 37.2966 0.0873401 35.7142 0H35.3215C35.267 0.0472512 35.1973 0.0732453 35.1251 0.0732453C35.053 0.0732453 34.9833 0.0472512 34.9288 0H32.0455C31.991 0.0472512 31.9213 0.0732453 31.8492 0.0732453C31.777 0.0732453 31.7073 0.0472512 31.6528 0H31.1361C31.0844 0.180808 30.9294 0.118817 30.8157 0.129149C28.3886 0.389255 26.0076 0.974819 23.7367 1.87007C20.3789 3.20522 17.3305 5.21434 14.7796 7.77339C12.2288 10.3325 10.2297 13.3871 8.90589 16.7488C7.58203 20.1104 6.96147 23.7077 7.08254 27.3185C7.2036 30.9293 8.06372 34.477 9.60978 37.7424C9.71288 37.8871 9.75445 38.0667 9.7254 38.2419C9.69635 38.4172 9.59904 38.5738 9.45476 38.6775C6.57149 41.5325 3.70028 44.3979 0.841131 47.2736C-0.574667 48.6942 -0.161291 50.306 1.76605 50.8898C5.19187 51.9488 8.61769 53.0181 12.0487 54.0617C12.2664 54.1084 12.4663 54.2163 12.6246 54.3729C12.783 54.5294 12.8933 54.7279 12.9426 54.945C14.007 58.4579 15.1128 61.9604 16.1927 65.4681C16.2733 65.7976 16.4374 66.1009 16.669 66.3487C16.9006 66.5966 17.1921 66.7808 17.5155 66.8835C18.4198 67.178 19.107 66.8061 19.7374 66.181C24.0364 61.8726 28.3424 57.5676 32.6552 53.2661C33.2546 52.6669 33.7558 52.6669 34.3552 53.2661L47.1698 66.0777C47.4011 66.3394 47.6712 66.5642 47.9707 66.7441C49.1229 67.3485 50.3734 66.7957 50.7919 65.4577C51.8977 61.9346 52.9931 58.4062 54.0782 54.8727C54.1163 54.6867 54.2072 54.5157 54.3401 54.3801C54.473 54.2444 54.6422 54.15 54.8275 54.1082C58.3256 53.075 61.8083 51.954 65.2961 50.8743C65.6843 50.7969 66.042 50.6097 66.3269 50.335C66.6118 50.0602 66.8118 49.7095 66.9031 49.3245C66.94 49.0523 66.9487 48.777 66.9289 48.5031ZM18.952 61.1287C18.1097 58.4165 17.19 55.5856 16.3684 52.734C16.2514 52.2309 15.9958 51.7706 15.6305 51.4054C15.2652 51.0401 14.8048 50.7845 14.3015 50.6676C11.5888 49.8772 8.90188 49.0094 6.19947 48.1725C6.05479 48.1312 5.91527 48.0743 5.68275 47.9968L8.85021 44.8353L11.625 42.0612C11.7851 41.901 11.8937 41.6737 12.1417 42.0147C15.9304 47.239 21.5051 50.8914 27.8085 52.2794L18.952 61.1287ZM33.358 48.9422C27.4165 48.896 21.7332 46.5076 17.5429 42.296C13.3526 38.0845 10.9939 32.39 10.9791 26.4496C10.9832 20.4746 13.3602 14.7457 17.5876 10.5222C21.815 6.29862 27.5469 3.92611 33.5233 3.92611C39.4993 3.9439 45.2239 6.3326 49.4394 10.5675C53.6549 14.8023 56.0166 20.537 56.0056 26.5116C55.9728 32.4881 53.5687 38.2072 49.3214 42.4129C45.074 46.6186 39.3307 48.9669 33.3528 48.9422H33.358ZM55.7731 49.7223C54.6311 50.0787 53.4943 50.4403 52.3472 50.7555C51.9563 50.856 51.6002 51.061 51.3171 51.3486C51.034 51.6363 50.8345 51.9955 50.7403 52.3879C49.8412 55.3377 48.9111 58.2822 48.0172 61.1442L39.1038 52.2691C45.5093 50.8697 51.1705 47.1509 54.998 41.8287L61.1986 48.0278L55.7731 49.7223Z" fill="white"/>
</svg>
