<svg width="46" height="46" viewBox="0 0 46 46" fill="none" xmlns="http://www.w3.org/2000/svg">
<path d="M18.421 30.8788V31.5895C18.421 34.3307 18.421 37.072 18.421 39.8132C18.421 41.5392 17.8879 43.0621 16.4158 44.1282C15.6797 44.6612 14.8421 44.9911 13.9537 44.9911C12.4816 44.9911 10.984 45.1181 9.53727 44.8896C7.15136 44.4835 5.70459 42.4783 5.70459 39.864C5.70459 37.0974 5.70459 34.3561 5.70459 31.5895C5.70459 31.3864 5.70459 31.158 5.70459 30.9803C4.89237 30.7519 4.08015 30.625 3.34407 30.295C1.11046 29.2797 0.0951823 27.4015 0.0190365 25.0156C-0.00634549 22.3251 -0.00634549 19.6092 0.0190365 16.9187C0.0698004 13.5175 2.55723 11.0809 5.98379 11.0555C9.66418 11.0555 13.3446 11.0301 17.0249 11.0555C21.0607 11.0809 24.8933 10.3194 28.4976 8.46652C30.7566 7.32433 32.711 5.80141 34.5131 4.02468C35.5284 3.03478 36.5183 2.0195 37.5336 1.02961C38.6758 -0.0871994 39.8433 -0.290255 41.1378 0.395058C42.2292 0.978843 42.5592 1.96874 42.5592 3.11093C42.5592 7.12128 42.5592 11.1062 42.5592 15.1166C42.5592 15.345 42.6607 15.7004 42.813 15.8273C44.1329 16.7157 44.8943 17.9594 45.1989 19.4823C45.5796 21.4113 45.3258 23.2642 44.1329 24.8633C43.8283 25.2694 43.4222 25.6501 42.9907 25.9547C42.6607 26.1831 42.5338 26.4116 42.5338 26.8177C42.5338 30.828 42.5338 34.813 42.5338 38.8233C42.5338 40.0163 42.1531 41.0316 40.9855 41.59C39.7418 42.1991 38.5996 41.9707 37.5082 40.8793C36.1629 39.5594 34.8431 38.2142 33.4471 36.9197C29.8428 33.5693 25.5533 31.691 20.6799 31.0311C19.9692 30.9295 19.2332 30.9295 18.421 30.8788ZM38.2696 35.6506V6.25829C32.7871 11.8931 26.264 14.9897 18.4717 15.2689V26.6654C26.3147 26.8684 32.7871 30.1173 38.2696 35.6506ZM14.1822 15.2689H13.573C11.0856 15.2689 8.57275 15.2689 6.08532 15.2689C4.76546 15.2689 4.25782 15.7765 4.25782 17.071C4.25782 19.6092 4.25782 22.1474 4.25782 24.6856C4.25782 26.1324 4.68932 26.5385 6.13609 26.5385C8.62352 26.5385 11.0856 26.5385 13.573 26.5385C13.7761 26.5385 13.9791 26.5385 14.2075 26.5131V15.2689H14.1822ZM14.2075 30.9295H9.96876C9.96876 30.9295 9.918 31.0311 9.918 31.0818C9.918 34.0515 9.918 37.0212 9.918 39.9909C9.918 40.5747 10.2226 40.8285 10.8064 40.8539C11.5932 40.8539 12.38 40.8539 13.1669 40.8539C13.9283 40.8539 14.1822 40.5747 14.1822 39.8132C14.1822 38.1634 14.1822 36.5136 14.1822 34.8638C14.1822 33.5693 14.1822 32.2748 14.1822 30.9295H14.2075Z" fill="#50535C"/>
</svg>
