<svg width="46" height="45" viewBox="0 0 46 45" fill="none" xmlns="http://www.w3.org/2000/svg">
<path d="M43.8378 26.022C43.6342 26.0258 43.4331 25.976 43.2548 25.8775C43.132 25.8039 43.0249 25.7066 42.9399 25.5913C42.8549 25.4761 42.7936 25.3451 42.7595 25.2059C42.7254 25.0668 42.7193 24.9223 42.7414 24.7808C42.7636 24.6392 42.8136 24.5035 42.8886 24.3814C43.4761 23.4134 43.7915 22.3048 43.8017 21.1725C43.8017 19.5306 43.1494 17.956 41.9884 16.795C40.8274 15.634 39.2528 14.9817 37.6109 14.9817L35.7898 14.9817C35.6454 14.9845 35.5019 14.9582 35.3679 14.9042C35.234 14.8502 35.1123 14.7698 35.0102 14.6676C34.908 14.5655 34.8276 14.4438 34.7736 14.3099C34.7196 14.1759 34.6933 14.0324 34.6961 13.888V12.0669C34.6988 10.7749 34.447 9.49507 33.9551 8.30041C33.4631 7.10575 32.7408 6.01967 31.8291 5.10419C30.9175 4.18871 29.8344 3.46176 28.6418 2.96484C27.4492 2.46792 26.1704 2.21076 24.8785 2.20805C23.5865 2.20534 22.3067 2.45713 21.112 2.94904C19.9173 3.44096 18.8312 4.16336 17.9158 5.07501C16.0669 6.91616 15.0251 9.41637 15.0196 12.0256L15.0196 13.8519C15.0224 13.9963 14.9961 14.1398 14.9421 14.2738C14.8881 14.4077 14.8077 14.5294 14.7055 14.6315C14.6034 14.7337 14.4817 14.8141 14.3478 14.8681C14.2138 14.9221 14.0703 14.9484 13.9259 14.9456L12.1048 14.9456C10.4629 14.9456 8.88825 15.5979 7.72724 16.7589C6.56624 17.9199 5.91401 19.4945 5.91401 21.1364C5.91239 21.5516 5.94863 21.966 6.02232 22.3746C6.05678 22.5152 6.06255 22.6614 6.0393 22.8043C6.01604 22.9472 5.96425 23.084 5.88699 23.2065C5.80973 23.3289 5.70856 23.4346 5.58958 23.5171C5.4706 23.5996 5.33624 23.6573 5.19447 23.6868C5.0527 23.7163 4.90642 23.7169 4.76441 23.6886C4.6224 23.6603 4.48754 23.6037 4.36788 23.5222C4.24822 23.4406 4.14623 23.3358 4.06796 23.214C3.98968 23.0922 3.93675 22.9558 3.91231 22.8131C3.79254 22.2621 3.73028 21.7002 3.72656 21.1364C3.72793 18.9139 4.61179 16.7829 6.18383 15.2118C7.75587 13.6407 9.88742 12.7582 12.1099 12.7582L12.8374 12.7582L12.8374 12.0256C12.8374 8.83623 14.1044 5.77747 16.3596 3.52223C18.6148 1.26698 21.6736 0 24.863 0C28.0524 0 31.1112 1.26698 33.3664 3.52223C35.6217 5.77747 36.8886 8.83623 36.8886 12.0256V12.7582L37.616 12.7582C39.8386 12.7582 41.9701 13.6407 43.5422 15.2118C45.1142 16.7829 45.9981 18.9139 45.9994 21.1364C45.9894 22.6749 45.5749 24.1837 44.7974 25.5113C44.6923 25.6692 44.5495 25.7986 44.382 25.8877C44.2145 25.9769 44.0275 26.023 43.8378 26.022Z" fill="#50535C"/>
<path d="M44.8604 28.2976C44.1564 27.6388 43.2227 27.2813 42.2588 27.3016C41.2948 27.3218 40.377 27.7181 39.7014 28.4059C34.6352 33.472 30.4152 35.2571 25.1633 34.5967C23.6665 34.4065 22.2191 33.9356 20.8968 33.2089C20.644 33.1006 20.3499 32.9561 20.061 32.8117C19.9888 32.7756 19.767 32.6621 18.9673 32.2287C18.8014 32.132 18.6637 31.9934 18.568 31.8268C18.4723 31.6603 18.422 31.4716 18.422 31.2795C18.422 31.0874 18.4723 30.8987 18.568 30.7321C18.6637 30.5655 18.8014 30.427 18.9673 30.3302L24.4668 27.1626C25.3599 26.6614 26.0299 25.8404 26.342 24.865C26.654 23.8895 26.585 22.8321 26.1486 21.9056C25.9077 21.4108 25.5663 20.9718 25.1461 20.6165C24.726 20.2611 24.2363 19.9974 23.7084 19.842C23.1836 19.6824 22.6315 19.6326 22.0865 19.6957C21.5416 19.7587 21.0154 19.9332 20.5408 20.2083L7.94768 27.4773C7.69592 27.6216 7.51182 27.8601 7.43587 28.1402C7.35992 28.4203 7.39836 28.7191 7.54271 28.9708C7.68706 29.2226 7.9255 29.4067 8.2056 29.4826C8.48569 29.5586 8.78449 29.5201 9.03625 29.3758L21.6448 22.1068C21.8623 21.9768 22.1044 21.8936 22.3558 21.8625C22.6072 21.8314 22.8623 21.8531 23.1048 21.9262C23.3442 21.996 23.5657 22.1164 23.7544 22.2793C23.9431 22.4421 24.0946 22.6437 24.1985 22.8703C24.399 23.3035 24.428 23.7965 24.2797 24.2502C24.1313 24.7039 23.8166 25.0846 23.3989 25.3157L17.8942 28.4627C17.3974 28.7512 16.985 29.1651 16.6983 29.6631C16.4116 30.161 16.2607 30.7255 16.2607 31.3001C16.2607 31.8747 16.4116 32.4392 16.6983 32.9371C16.985 33.4351 17.3974 33.849 17.8942 34.1376C18.73 34.6122 19.0241 34.7566 19.1685 34.8289C19.4626 34.9733 19.7515 35.0868 20.0094 35.2313C21.5405 36.042 23.2066 36.5665 24.926 36.779C30.8691 37.5064 35.7599 35.4995 41.2903 29.9639C41.5578 29.6867 41.9225 29.5242 42.3075 29.5108C42.6925 29.4973 43.0677 29.6339 43.3539 29.8917C43.6265 30.1847 43.7751 30.5719 43.7683 30.972C43.7616 31.3722 43.6001 31.7542 43.3178 32.0378C41.1304 34.3336 33.0772 41.8761 20.9793 41.8761C15.0052 41.8761 8.04571 39.3997 5.8944 38.6001L5.8944 27.3328C5.89787 27.1889 5.87233 27.0457 5.8193 26.9118C5.76628 26.778 5.68688 26.6561 5.58579 26.5536C5.4847 26.4511 5.36399 26.3699 5.23089 26.315C5.09778 26.2601 4.95501 26.2325 4.81103 26.234L1.16877 26.234C0.878704 26.234 0.600505 26.3492 0.395395 26.5543C0.190285 26.7594 0.0750675 27.0376 0.0750675 27.3277C0.0750675 27.6177 0.190285 27.8959 0.395395 28.101C0.600505 28.3062 0.878704 28.4214 1.16877 28.4214L3.71732 28.4214L3.71732 40.803L1.16877 40.803C1.01917 40.7927 0.869061 40.8133 0.727752 40.8634C0.586443 40.9136 0.456955 40.9923 0.347345 41.0946C0.237734 41.197 0.150314 41.3207 0.0905596 41.4583C0.0308048 41.5958 0 41.7442 0 41.8941C0 42.0441 0.0308048 42.1924 0.0905596 42.3299C0.150314 42.4675 0.237734 42.5913 0.347345 42.6936C0.456955 42.7959 0.586443 42.8746 0.727752 42.9248C0.869061 42.975 1.01917 42.9955 1.16877 42.9852L4.81103 42.9852C4.95542 42.988 5.09891 42.9617 5.23287 42.9077C5.36683 42.8537 5.48851 42.7733 5.59064 42.6711C5.69276 42.569 5.77321 42.4473 5.82718 42.3134C5.88115 42.1794 5.90754 42.0359 5.90473 41.8915L5.90473 40.9629C8.78345 41.9947 15.1909 44.0944 20.9896 44.0944C29.7599 44.0944 38.6644 40.1581 44.8965 33.5649C45.5802 32.8564 45.9592 31.9084 45.9524 30.9239C45.9457 29.9393 45.5537 28.9966 44.8604 28.2976Z" fill="#50535C"/>
</svg>
