<svg width="58" height="58" viewBox="0 0 58 58" fill="none" xmlns="http://www.w3.org/2000/svg">
<path d="M2 55.6668C2.0313 53.001 2.58626 50.3673 3.63333 47.9155C4.77667 45.6265 9.55767 44.0398 15.559 41.8185C17.1807 41.2165 16.9147 36.9792 16.196 36.1882C15.0511 34.9484 14.1815 33.4804 13.6442 31.8807C13.1069 30.281 12.9142 28.5857 13.0787 26.9062C12.9759 25.8372 13.0941 24.7585 13.4262 23.7373C13.7582 22.716 14.2968 21.774 15.0086 20.9699C15.7204 20.1657 16.59 19.5167 17.5634 19.0631C18.5368 18.6096 19.5931 18.3612 20.6667 18.3335C21.741 18.36 22.7983 18.6074 23.7729 19.0604C24.7474 19.5134 25.6181 20.1623 26.3309 20.9665C27.0436 21.7708 27.5831 22.7132 27.9157 23.7351C28.2483 24.757 28.3669 25.8364 28.264 26.9062C28.4285 28.5857 28.2357 30.281 27.6985 31.8807C27.1612 33.4804 26.2916 34.9484 25.1467 36.1882C24.428 36.9792 24.162 41.2165 25.7837 41.8185C31.785 44.0398 36.566 45.6265 37.7093 47.9155C38.7564 50.3673 39.3114 53.001 39.3427 55.6668H2Z" stroke="#50535C" stroke-width="3" stroke-linecap="round" stroke-linejoin="round"/>
<path d="M40.5677 23.1353C46.404 23.1353 51.1353 18.404 51.1353 12.5677C51.1353 6.7313 46.404 2 40.5677 2C34.7313 2 30 6.7313 30 12.5677C30 18.404 34.7313 23.1353 40.5677 23.1353Z" fill="#D3D93C" stroke="#50535C" stroke-width="3" stroke-linecap="round" stroke-linejoin="round"/>
<path d="M55.6666 27.667L48.0879 20.0884" stroke="#50535C" stroke-width="3" stroke-linecap="round" stroke-linejoin="round"/>
<path d="M45.1667 55.6667H53.3334V53.6763C53.3334 46.6227 48.1604 45.484 43.2814 43.678C41.6481 43.0783 41.9257 38.8433 42.6444 38.0547C43.788 36.8151 44.6567 35.3478 45.1935 33.749C45.7304 32.1501 45.9232 30.4559 45.7594 28.7773" stroke="#50535C" stroke-width="3" stroke-linecap="round" stroke-linejoin="round"/>
</svg>
