<svg width="58" height="63" viewBox="0 0 58 63" fill="none" xmlns="http://www.w3.org/2000/svg">
<path d="M54.4651 56.4013C54.5808 56.2568 54.6892 56.105 54.7976 55.9532C54.9061 55.8014 55.1157 55.4906 55.2675 55.2304C55.4192 54.9702 55.4771 54.8979 55.5783 54.7244C55.6795 54.5509 55.824 54.2763 55.9469 54.045C56.0698 53.8137 56.1565 53.6185 56.2505 53.4017C56.3444 53.1848 56.424 53.0186 56.5035 52.8234C56.583 52.6282 56.7203 52.2524 56.8143 51.9633L56.9444 51.5585C57.0528 51.1898 57.154 50.8357 57.2335 50.4309L57.2769 50.2285C57.3636 49.7804 57.4359 49.3178 57.4865 48.8552C57.5299 48.3637 57.5588 47.8649 57.5588 47.3662C57.5588 46.9253 57.5588 46.4916 57.4937 46.0579C57.4937 45.9495 57.4937 45.8483 57.4937 45.7471C57.4937 45.429 57.407 45.1182 57.3564 44.8146C57.3058 44.5111 57.2841 44.3882 57.2335 44.1786C57.1829 43.9689 57.1468 43.8388 57.1034 43.6726C57.0239 43.3473 56.9372 43.0293 56.836 42.7113L56.7998 42.6245C55.8493 39.8271 54.0923 37.3736 51.7501 35.5728C49.4078 33.7721 46.5851 32.7047 43.6374 32.5051H43.5001C43.1097 32.5051 42.7267 32.5051 42.3291 32.5051C40.6861 32.546 39.0615 32.8612 37.5224 33.4376C36.2456 33.9387 35.0325 34.589 33.9083 35.3747C33.6626 35.5554 33.424 35.7361 33.1855 35.924C31.7397 37.133 30.5355 38.6045 29.6365 40.2609V40.2609C29.463 40.5862 29.304 40.9259 29.1522 41.2656C28.6466 42.456 28.278 43.7 28.0535 44.9737C27.6687 47.2001 27.8148 49.4859 28.48 51.6452L28.6318 52.0934C29.2642 53.9565 30.2591 55.6761 31.5592 57.1531L31.6026 57.1964C32.3058 58.0011 33.0934 58.7281 33.9517 59.3649L34.0673 59.4516C34.3203 59.6323 34.5733 59.7986 34.8408 59.9648L35.0865 60.1166C35.8953 60.5991 36.747 61.0056 37.6308 61.3309L38.0139 61.4683C38.2163 61.5405 38.4187 61.5984 38.6211 61.6562C39.9574 62.0456 41.3419 62.2451 42.7339 62.2489C43.2288 62.248 43.7234 62.2215 44.2156 62.1694H44.2952C44.6999 62.126 45.0903 62.061 45.4806 61.9887C45.7191 61.9453 45.9432 61.8875 46.2034 61.8369C46.4636 61.7863 46.7527 61.7068 47.0202 61.6273L47.4972 61.4683C47.808 61.3671 48.1188 61.2586 48.4296 61.1285L48.7983 60.9695C49.1163 60.825 49.4271 60.6804 49.7307 60.5141L50.0921 60.3118C50.3812 60.1527 50.6631 59.9793 50.9378 59.7986L51.3498 59.5094C51.5883 59.3432 51.8196 59.1697 52.0726 58.989C52.3256 58.8083 52.3979 58.7143 52.5569 58.577C52.7159 58.4397 52.9183 58.259 53.0918 58.0855C53.2653 57.912 53.4532 57.7241 53.6267 57.5434C53.8001 57.3627 53.9086 57.247 54.0387 57.088C54.1688 56.929 54.2989 56.6254 54.4651 56.4013ZM42.6544 58.895C39.5871 58.895 36.6455 57.6766 34.4767 55.5077C32.3078 53.3389 31.0894 50.3973 31.0894 47.33C31.0894 44.2628 32.3078 41.3212 34.4767 39.1523C36.6455 36.9835 39.5871 35.765 42.6544 35.765V35.765C45.7169 35.7802 48.6497 37.0035 50.8153 39.1691C52.9809 41.3347 54.2042 44.2675 54.2194 47.33C54.2175 50.4014 53.0001 53.3471 50.833 55.5236C48.666 57.7001 45.7257 58.9304 42.6544 58.9456V58.895Z" fill="#50535C"/>
<path d="M40.5365 15.3167C40.5234 15.0355 40.4014 14.7704 40.1964 14.5775C39.9913 14.3846 39.7193 14.279 39.4378 14.2831L32.5277 14.2831C32.3164 14.3027 32.1053 14.2434 31.935 14.1168C31.8055 13.9507 31.7459 13.7407 31.7688 13.5313C31.7688 13.1555 31.7688 12.8085 31.7688 12.411C31.8248 11.1454 31.7619 9.87728 31.5808 8.62343C31.1345 6.23639 29.8797 4.0759 28.0275 2.50541C26.1753 0.934913 23.8387 0.0502583 21.4108 0.000265847L21.288 0.000265847C18.8472 -0.0170701 16.4762 0.813938 14.5803 2.35122C12.6844 3.88851 11.3813 6.0366 10.8939 8.42827C10.6849 9.69382 10.6122 10.9781 10.6771 12.2592C10.6771 12.6929 10.6771 13.1338 10.6771 13.5675C10.6771 14.0012 10.4747 14.2903 9.95424 14.2903L3.06584 14.2903C2.77389 14.2898 2.49284 14.4012 2.28044 14.6015C2.06804 14.8018 1.94042 15.0758 1.92379 15.3673C1.60575 20.8607 0.160124 45.5014 0.13844 45.7833C-0.00253386 46.9492 0.0193687 48.129 0.203501 49.2889C0.600938 51.3978 1.73202 53.2979 3.39635 54.6527C5.06068 56.0074 7.15083 56.7293 9.29649 56.6905C14.6959 56.6905 18.8738 56.6905 24.5334 56.6905C24.8243 56.6903 25.11 56.6125 25.3607 56.4649C25.6115 56.3174 25.8183 56.1056 25.9598 55.8513C26.1013 55.5971 26.1723 55.3097 26.1655 55.0188C26.1587 54.7279 26.0744 54.4442 25.9212 54.1968C25.7775 53.9596 25.5748 53.7636 25.3329 53.6281C25.0909 53.4925 24.818 53.422 24.5406 53.4234L9.5061 53.4234C8.65779 53.4571 7.81189 53.3117 7.02354 52.9966C6.23519 52.6815 5.52208 52.2038 4.93069 51.5947C4.35906 50.9391 3.92915 50.1724 3.66793 49.3427C3.40672 48.513 3.31986 47.6383 3.41279 46.7735C3.60072 44.1931 3.74528 41.562 3.88262 39.0177C3.94767 37.8034 4.01995 36.5891 4.085 35.4037L5.06803 19.1765C5.15477 17.6658 5.23427 17.5935 6.72327 17.5935L7.67016 17.5935C8.46526 17.5935 9.2748 17.5935 10.0771 17.5935C10.1652 17.582 10.2547 17.5881 10.3404 17.6117C10.4261 17.6353 10.5061 17.6758 10.5759 17.7309C10.6368 17.803 10.6814 17.8876 10.7063 17.9788C10.7313 18.0699 10.7361 18.1654 10.7204 18.2585C10.7204 18.8079 10.7204 19.7042 10.7204 20.5715C10.7099 20.9876 10.8505 21.3935 11.1164 21.7138C11.3822 22.0341 11.7551 22.2472 12.1661 22.3135C12.396 22.3389 12.6286 22.3156 12.8489 22.2451C13.0692 22.1746 13.2722 22.0586 13.4447 21.9045C13.6171 21.7504 13.7553 21.5617 13.8501 21.3508C13.9448 21.1398 13.9941 20.9112 13.9948 20.68C13.9948 20.1523 13.9948 19.5596 13.9948 19.0608L13.9948 18.2658C13.9857 18.1707 13.9985 18.0749 14.0324 17.9857C14.0663 17.8964 14.1203 17.8162 14.1902 17.7512C14.2601 17.6862 14.3441 17.6382 14.4355 17.6108C14.527 17.5835 14.6235 17.5776 14.7176 17.5935L27.786 17.5935C27.9777 17.5935 28.1616 17.6697 28.2972 17.8052C28.4327 17.9408 28.5089 18.1247 28.5089 18.3164L28.5089 20.6438C28.5063 20.9378 28.5828 21.2271 28.7303 21.4814C28.8778 21.7357 29.0909 21.9457 29.3473 22.0894C29.5928 22.2295 29.8706 22.3032 30.1533 22.3032C30.4359 22.3032 30.7137 22.2295 30.9592 22.0894C31.2138 21.9442 31.425 21.7336 31.5712 21.4795C31.7173 21.2254 31.793 20.9369 31.7904 20.6438L31.7904 18.4175C31.7781 18.3044 31.7884 18.1899 31.8206 18.0807C31.8529 17.9715 31.9065 17.8698 31.9784 17.7815C32.0685 17.7115 32.1724 17.6612 32.2832 17.6338C32.394 17.6064 32.5093 17.6025 32.6217 17.6225C34.0673 17.6225 35.3973 17.6225 36.5827 17.6225C37.2477 17.6225 37.3995 17.9188 37.4284 18.4392C37.5079 19.9355 37.8042 25.1108 37.9633 27.9659C37.9773 28.1944 38.0393 28.4174 38.1451 28.6205C38.2509 28.8235 38.3982 29.002 38.5774 29.1445C38.7567 29.2869 38.9639 29.3901 39.1855 29.4473C39.4072 29.5045 39.6385 29.5145 39.8643 29.4766H39.9004C40.2979 29.3962 40.6515 29.1716 40.8931 28.8459C41.1347 28.5202 41.2471 28.1166 41.2087 27.7129C40.9991 23.5712 40.6738 17.6947 40.5365 15.3167ZM28.3354 14.1385C28.1874 14.2591 27.9977 14.3163 27.8077 14.2975V14.2975C26.1814 14.2975 24.5478 14.2975 22.9143 14.2975L14.6742 14.2975C14.5772 14.3277 14.4739 14.3314 14.3749 14.3083C14.276 14.2853 14.185 14.2362 14.1113 14.1662C14.0377 14.0963 13.984 14.0079 13.9559 13.9103C13.9278 13.8126 13.9262 13.7093 13.9514 13.6108C13.9514 13.0904 13.9514 12.5555 13.9514 12.0351C13.8868 11.007 13.9524 9.97483 14.1466 8.96315C14.5201 7.20921 15.5322 5.65673 16.9864 4.60734C18.4406 3.55795 20.2329 3.08658 22.0152 3.28481C23.7975 3.48304 25.4424 4.33672 26.6305 5.67999C27.8185 7.02325 28.4648 8.76019 28.4438 10.5533C28.4438 11.0376 28.4438 11.5147 28.4438 11.999C28.4438 12.4832 28.4438 13.0687 28.4438 13.6036C28.4752 13.7892 28.4366 13.9798 28.3354 14.1385V14.1385Z" fill="#50535C"/>
<path d="M46.5852 42.9427C45.0818 44.4896 42.6242 47.0411 41.2653 48.4578C41.1492 48.6044 40.9808 48.7002 40.7955 48.7252C40.7066 48.7109 40.6216 48.6785 40.5458 48.63C40.47 48.5815 40.4049 48.518 40.3546 48.4434L38.5114 46.3472C38.3695 46.1845 38.1969 46.0516 38.0033 45.9561C37.8098 45.8605 37.5992 45.8043 37.3838 45.7906H37.2754C36.9572 45.7905 36.6458 45.8826 36.3788 46.0556C36.1118 46.2286 35.9006 46.4752 35.7706 46.7656C35.6407 47.0561 35.5976 47.3779 35.6466 47.6923C35.6956 48.0067 35.8345 48.3002 36.0466 48.5373L39.9209 52.8742C40.0205 52.9876 40.1426 53.079 40.2795 53.1424C40.4164 53.2059 40.5651 53.2401 40.716 53.2428C40.8682 53.2455 41.0193 53.2166 41.1598 53.1582C41.3004 53.0997 41.4273 53.0129 41.5328 52.9031L48.9561 45.2413C49.119 45.0881 49.2491 44.9035 49.3387 44.6987C49.4283 44.4938 49.4755 44.2729 49.4774 44.0493C49.4793 43.8258 49.4359 43.6041 49.3497 43.3978C49.2636 43.1914 49.1366 43.0047 48.9763 42.8488C48.816 42.6929 48.6257 42.5711 48.4171 42.4907C48.2084 42.4104 47.9857 42.3731 47.7622 42.3812C47.5388 42.3893 47.3193 42.4426 47.117 42.5379C46.9147 42.6332 46.7338 42.7684 46.5852 42.9355V42.9427Z" fill="#50535C"/>
</svg>
