<svg width="64" height="61" viewBox="0 0 64 61" fill="none" xmlns="http://www.w3.org/2000/svg">
<path d="M58.9613 14.5816L32.3299 0.697577C32.0863 0.562705 31.8099 0.491699 31.5285 0.491699C31.2472 0.491699 30.9708 0.562705 30.7271 0.697577L3.65496 14.8044C3.42642 14.9234 3.24293 15.1085 3.13067 15.3334C3.01841 15.5583 2.98312 15.8115 3.02985 16.0568L3.02985 44.7468C2.99403 45.0227 3.03698 45.3028 3.15412 45.5572C3.27126 45.8116 3.45821 46.0307 3.69503 46.1912L30.7111 60.275C30.9535 60.4129 31.2306 60.4846 31.5125 60.4824C31.7938 60.4889 32.0715 60.4197 32.3139 60.2827L59.3139 46.1989C59.9631 45.9223 60.0111 45.0695 60.0111 44.716L60.0111 16.4102C60.0171 16.0442 59.9234 15.683 59.7393 15.3624C59.5551 15.0417 59.287 14.7726 58.9613 14.5816ZM29.9497 56.9634L7.50981 45.1924L26.5837 35.3269C26.8428 35.2078 27.0534 35.0097 27.1825 34.7636C27.3115 34.5175 27.3518 34.2373 27.297 33.9669H27.3851L27.0245 33.4444C26.7783 33.1324 26.4218 32.9173 26.0219 32.8395C25.622 32.7617 25.2062 32.8265 24.8526 33.0218L6.06725 42.7644L6.06725 18.4233L29.9497 30.8781L29.9497 56.9634ZM31.5526 28.4732L7.50981 15.9876L31.5526 3.50203L55.5953 15.9876L31.5526 28.4732ZM57.0138 42.7644L38.0761 32.9143C37.7201 32.7393 37.3135 32.6829 36.9203 32.7538C36.5271 32.8248 36.1697 33.0191 35.9043 33.3061C35.7873 33.4483 35.708 33.6155 35.6732 33.7935C35.6383 33.9714 35.6488 34.1548 35.7039 34.328C35.8056 34.6906 36.0423 35.0049 36.3691 35.2116L55.435 45.0925L33.0993 56.8405L33.0993 30.8858L56.9818 18.4233L57.0138 42.7644Z" fill="#50535C"/>
<path d="M9.20036 1.94228C9.20036 1.55714 9.04077 1.18778 8.75671 0.915443C8.47265 0.643108 8.08738 0.490112 7.68566 0.490112L0 0.490112L0 8.11977C0 8.31047 0.0391785 8.49931 0.115299 8.67549C0.191419 8.85168 0.302991 9.01176 0.443643 9.14661C0.584295 9.28146 0.751274 9.38842 0.935045 9.4614C1.11882 9.53438 1.31578 9.57194 1.51469 9.57194C1.7139 9.57296 1.91134 9.53609 2.0956 9.46348C2.27985 9.39086 2.44725 9.28393 2.58811 9.14888C2.72897 9.01383 2.84051 8.85334 2.91625 8.67669C2.99199 8.50005 3.03045 8.31076 3.02939 8.11977L3.02939 3.39445L7.68566 3.39445C8.08738 3.39445 8.47265 3.24146 8.75671 2.96912C9.04077 2.69679 9.20036 2.32742 9.20036 1.94228Z" fill="#50535C"/>
<path d="M53.832 1.94228C53.832 1.55714 53.9916 1.18778 54.2757 0.915443C54.5597 0.643108 54.945 0.490112 55.3467 0.490112L63.0404 0.490112L63.0404 8.11977C63.0404 8.31112 63.001 8.50059 62.9243 8.67727C62.8477 8.85396 62.7354 9.01439 62.5939 9.14934C62.4524 9.28429 62.2845 9.39109 62.0998 9.46362C61.9151 9.53614 61.7173 9.57296 61.5177 9.57194C61.116 9.57194 60.7307 9.41895 60.4466 9.14661C60.1626 8.87428 60.003 8.50491 60.003 8.11977L60.003 3.39445L55.3147 3.39445C54.9185 3.38642 54.5414 3.22988 54.2643 2.95841C53.9871 2.68694 53.8319 2.32216 53.832 1.94228Z" fill="#50535C"/>
<path d="M9.20036 59.0303C9.20142 59.2213 9.16296 59.4106 9.08722 59.5872C9.01148 59.7639 8.89995 59.9243 8.75908 60.0594C8.61822 60.1944 8.45082 60.3014 8.26657 60.374C8.08231 60.4466 7.88487 60.4835 7.68566 60.4825L0 60.4825L0 52.8528C0 52.6621 0.0391785 52.4733 0.115299 52.2971C0.191419 52.1209 0.302991 51.9608 0.443643 51.826C0.584295 51.6911 0.751274 51.5842 0.935045 51.5112C1.11882 51.4382 1.31578 51.4006 1.51469 51.4006C1.91641 51.4006 2.30168 51.5536 2.58574 51.826C2.8698 52.0983 3.02939 52.4677 3.02939 52.8528L3.02939 57.6088L7.68566 57.6088C8.08738 57.6088 8.47265 57.7618 8.75671 58.0342C9.04077 58.3065 9.20036 58.6759 9.20036 59.061V59.0303Z" fill="#50535C"/>
<path d="M53.832 59.0303C53.832 59.4154 53.9916 59.7848 54.2757 60.0571C54.5597 60.3295 54.945 60.4825 55.3467 60.4825L63.0404 60.4825L63.0404 52.8528C63.0383 52.467 62.8769 52.0976 62.5916 51.8255C62.3063 51.5534 61.9202 51.4006 61.5177 51.4006C61.116 51.4006 60.7307 51.5536 60.4466 51.826C60.1626 52.0983 60.003 52.4677 60.003 52.8528L60.003 57.6089L55.3147 57.6089C54.924 57.6167 54.5516 57.769 54.2753 58.0339C53.999 58.2988 53.8402 58.6558 53.832 59.0303Z" fill="#50535C"/>
</svg>
