<svg width="52" height="43" viewBox="0 0 52 43" fill="none" xmlns="http://www.w3.org/2000/svg">
<path d="M28.5291 14.5188C28.2237 14.4811 27.9149 14.5528 27.657 14.7213C27.3991 14.8897 27.2087 15.1441 27.1194 15.4396C27.0343 15.7078 26.9553 15.9822 26.8824 16.2566L26.5421 17.5615L26.0864 19.3297C25.9466 19.8541 25.8008 20.3785 25.661 20.9029C25.5213 21.4272 25.3998 21.848 25.2722 22.3236C25.1446 22.7992 24.9683 23.4577 24.8225 24.0308L23.6558 28.4027C23.5586 28.7929 23.4553 29.1893 23.3459 29.5795C23.2365 29.9697 23.1211 30.421 23.0056 30.8417L22.5924 32.366C22.4162 32.9758 22.2461 33.6282 22.0942 34.2623C22.0942 34.3111 22.0638 34.3599 22.0516 34.4087C21.9618 34.6774 21.9369 34.9637 21.9787 35.244C22.0341 35.5339 22.1832 35.7973 22.4029 35.9936C22.6226 36.1898 22.9007 36.3078 23.194 36.3294H23.2305C23.5139 36.3294 23.7896 36.2365 24.0155 36.0648C24.2415 35.893 24.4054 35.6519 24.4822 35.3782C24.622 34.8477 24.7678 34.3172 24.9136 33.7867C25.0352 33.3538 25.1506 32.927 25.2661 32.5002C25.4362 31.8904 25.6003 31.2807 25.7644 30.6344L28.6871 19.6956C28.8998 18.9151 29.1064 18.1285 29.2948 17.3481L29.5014 16.5493C29.5648 16.3503 29.6115 16.1463 29.6411 15.9395V15.8786V15.8115C29.6354 15.4996 29.5211 15.1996 29.318 14.9635C29.1149 14.7274 28.8358 14.5701 28.5291 14.5188Z" fill="#50535C"/>
<path d="M19.3107 29.4271L19.0859 29.2502C18.7456 28.9819 18.3992 28.7198 18.0529 28.4576L17.1718 27.7869L16.1631 26.9942L15.203 26.2381L14.1275 25.4271L15.1179 24.665L16.5884 23.5186L18.1501 22.2992L18.6788 21.8967C18.9583 21.6833 19.2439 21.4699 19.5173 21.2443L19.6206 21.1711C19.9419 20.9733 20.1747 20.6588 20.2708 20.2931C20.3251 20.0705 20.3206 19.8376 20.2577 19.6173C20.1948 19.397 20.0758 19.197 19.9123 19.037C19.7559 18.8672 19.5546 18.7455 19.3319 18.6862C19.1092 18.6268 18.8742 18.6322 18.6544 18.7017C18.3546 18.7973 18.0804 18.9599 17.8523 19.1773L17.6761 19.3175C17.3662 19.5431 17.0685 19.7809 16.7647 20.0187L12.6205 23.2321L12.1769 23.5857C11.8731 23.8235 11.5693 24.0674 11.2594 24.2869C11.0811 24.4138 10.9338 24.5796 10.8286 24.7718C10.7233 24.964 10.6628 25.1776 10.6517 25.3967C10.6472 25.5948 10.6881 25.7913 10.7714 25.9711C10.8546 26.1508 10.9779 26.3089 11.1318 26.4332C11.4417 26.6893 11.7394 26.9393 12.1283 27.2198C12.3167 27.3722 12.5111 27.5186 12.736 27.6649L16.9895 30.9758L17.9921 31.7441L18.0711 31.8051C18.3245 32.0433 18.6596 32.1744 19.0069 32.1709H19.0616C19.3315 32.1653 19.5931 32.0763 19.8108 31.9161C20.0285 31.7559 20.1916 31.5322 20.278 31.2755C20.3644 31.0188 20.3698 30.7417 20.2934 30.4818C20.2171 30.2219 20.0628 29.992 19.8515 29.8234C19.6571 29.6953 19.4869 29.5551 19.3107 29.4271Z" fill="#50535C"/>
<path d="M40.6165 24.5191C40.426 24.342 40.2229 24.1789 40.0089 24.0313L39.778 23.8545C39.5531 23.6716 39.3222 23.5008 39.0974 23.324L34.7406 19.9399L33.5921 19.0558C33.3 18.7934 32.9207 18.6499 32.5287 18.6534C32.2676 18.6669 32.0166 18.759 31.8085 18.9178C31.6003 19.0766 31.4448 19.2947 31.362 19.5436C31.2762 19.8084 31.2726 20.0931 31.3518 20.3599C31.4311 20.6267 31.5893 20.8631 31.8056 21.0375C32.3039 21.4094 32.79 21.7814 33.2761 22.1594L34.0296 22.7691L34.8195 23.3789L35.5669 23.946L36.3022 24.5008C36.5149 24.6715 36.7276 24.8423 36.9463 25.0069L37.4567 25.4154L37.001 25.7691L36.1989 26.3788L35.2631 27.1166L34.1329 28.0495L32.31 29.4154C32.1034 29.5739 31.8968 29.7324 31.7023 29.9092C31.4981 30.1046 31.3627 30.3614 31.3167 30.6408C31.2706 30.9202 31.3164 31.207 31.4471 31.458C31.5532 31.679 31.7213 31.8642 31.9306 31.9909C32.14 32.1176 32.3816 32.1803 32.6259 32.1714H32.6989C32.9945 32.1608 33.2775 32.0489 33.5009 31.8543L34.6737 30.9458L38.3196 28.141L39.383 27.3117L39.7658 27.013C40.0634 26.8013 40.3475 26.5712 40.6165 26.324C40.7354 26.2087 40.8296 26.0703 40.8933 25.9172C40.957 25.7641 40.989 25.5996 40.9872 25.4337C40.9902 25.2641 40.9589 25.0955 40.8952 24.9383C40.8315 24.7811 40.7367 24.6385 40.6165 24.5191Z" fill="#50535C"/>
<path d="M7.48136 4.51896C7.71366 4.52033 7.94026 4.59125 8.13215 4.72263C8.32404 4.85401 8.4725 5.03987 8.55849 5.25642C8.64448 5.47297 8.6641 5.71034 8.61483 5.93815C8.56557 6.16595 8.44966 6.37382 8.28195 6.53512C8.11425 6.69643 7.90239 6.80383 7.67348 6.84359C7.44458 6.88334 7.20907 6.85363 6.9971 6.75825C6.78512 6.66288 6.60633 6.50619 6.48364 6.30825C6.36095 6.11031 6.29993 5.88012 6.30839 5.64717C6.31075 5.49556 6.34306 5.34592 6.40345 5.20692C6.46383 5.06791 6.5511 4.94231 6.66019 4.83739C6.76928 4.73246 6.89802 4.65029 7.03897 4.59563C7.17993 4.54097 7.3303 4.51491 7.48136 4.51896Z" fill="#50535C"/>
<path d="M12.0263 4.51919C12.2581 4.52173 12.4838 4.59348 12.6748 4.72529C12.8658 4.8571 13.0133 5.04299 13.0986 5.25928C13.1839 5.47556 13.203 5.71242 13.1536 5.93967C13.1042 6.16691 12.9884 6.37424 12.8211 6.53521C12.6538 6.69618 12.4425 6.8035 12.2142 6.84349C11.9858 6.88347 11.7508 6.85431 11.539 6.75971C11.3273 6.66512 11.1484 6.50939 11.0252 6.31237C10.902 6.11535 10.84 5.88598 10.8472 5.6535C10.8552 5.3467 10.9835 5.05545 11.2043 4.84305C11.4251 4.63065 11.7205 4.51427 12.0263 4.51919Z" fill="#50535C"/>
<path d="M16.5712 4.51914C16.803 4.52168 17.0287 4.59342 17.2197 4.72523C17.4107 4.85704 17.5583 5.04294 17.6435 5.25922C17.7288 5.47551 17.7479 5.71237 17.6985 5.93962C17.6491 6.16686 17.5333 6.37419 17.366 6.53516C17.1987 6.69613 16.9874 6.80345 16.7591 6.84343C16.5307 6.88342 16.2957 6.85425 16.0839 6.75966C15.8722 6.66507 15.6933 6.50934 15.5701 6.31232C15.4469 6.1153 15.3849 5.88593 15.3922 5.65345C15.3937 5.50079 15.4256 5.34997 15.486 5.20985C15.5464 5.06973 15.6341 4.94313 15.7439 4.83747C15.8538 4.73182 15.9835 4.64923 16.1256 4.59457C16.2676 4.53991 16.4191 4.51426 16.5712 4.51914Z" fill="#50535C"/>
<path d="M48.9821 11.3543C49.327 11.3551 49.6687 11.2875 49.9876 11.1554C50.3064 11.0233 50.5961 10.8293 50.84 10.5846C51.084 10.3398 51.2773 10.0491 51.4089 9.72916C51.5406 9.40921 51.6079 9.06633 51.6071 8.72019V3.23249C51.5914 2.37719 51.2446 1.56159 50.6401 0.958407C50.0355 0.35522 49.2208 0.011797 48.3683 0.00085322C33.3189 0.00085322 18.2675 0.00085322 3.21402 0.00085322C3.0365 -0.00406736 2.85903 0.0123084 2.68537 0.0496327C1.90034 0.2037 1.197 0.636681 0.704435 1.26912C0.260303 1.81038 0.0156679 2.4887 0.0117258 3.18981V8.72019C0.0109245 9.06633 0.0782682 9.40921 0.209905 9.72916C0.341542 10.0491 0.534879 10.3398 0.778796 10.5846C1.02271 10.8293 1.31242 11.0233 1.63126 11.1554C1.95011 11.2875 2.29182 11.3551 2.63677 11.3543H48.9821ZM2.63677 3.37274C2.62713 3.22525 2.66585 3.07866 2.74705 2.95534C2.82825 2.83203 2.94744 2.73877 3.08642 2.68982C3.14584 2.6634 3.20983 2.64891 3.27479 2.64714H48.3441C48.4879 2.65786 48.6245 2.71457 48.7339 2.80895C48.8433 2.90333 48.9196 3.0304 48.9517 3.17152C48.9552 3.22634 48.9552 3.28133 48.9517 3.33615V8.72019H2.63677V3.37274Z" fill="#50535C"/>
<path d="M48.9764 39.7255C48.9677 39.8704 48.9119 40.0085 48.8175 40.1186C48.7231 40.2288 48.5954 40.3048 48.4539 40.3352C48.3993 40.3412 48.3443 40.3412 48.2898 40.3352H3.32384C3.14334 40.3352 2.97023 40.2633 2.8426 40.1352C2.71497 40.0071 2.64327 39.8334 2.64327 39.6523V14.6528C2.63847 14.3046 2.49639 13.9724 2.24814 13.729C1.99988 13.4856 1.66567 13.3508 1.3186 13.3541C0.969941 13.3541 0.635477 13.4926 0.388366 13.7394C0.141255 13.9863 0.00160674 14.3212 0 14.6711C0 22.5978 0 32.6159 0 39.8474C0.00406622 40.1924 0.0720754 40.5335 0.200534 40.8535C0.398892 41.4002 0.74118 41.8827 1.191 42.2498C1.73242 42.7233 2.42347 42.989 3.14155 42.9998H48.4235C48.5971 42.9993 48.7701 42.9809 48.94 42.9449C49.7412 42.7847 50.4541 42.3303 50.9391 41.6705C51.3515 41.1314 51.5776 40.4721 51.5832 39.7925V14.6711C51.5832 14.4982 51.5493 14.3269 51.4833 14.1671C51.4174 14.0073 51.3207 13.8621 51.1988 13.7398C51.0769 13.6175 50.9323 13.5205 50.773 13.4543C50.6138 13.3881 50.4431 13.3541 50.2707 13.3541C50.0981 13.3533 49.9271 13.3868 49.7675 13.4527C49.6079 13.5186 49.4629 13.6156 49.3408 13.738C49.2188 13.8605 49.1222 14.006 49.0565 14.1661C48.9908 14.3263 48.9574 14.4979 48.9582 14.6711L48.9764 39.7255Z" fill="#50535C"/>
</svg>
