<svg width="25" height="25" viewBox="0 0 25 25" fill="none" xmlns="http://www.w3.org/2000/svg">
<g clip-path="url(#clip0_2807_868)">
<path d="M25.0003 12.5465C24.8766 19.6784 19.2489 25.0465 12.4462 25.0001C5.31879 24.9537 -0.0460837 19.2607 0.000298459 12.4383C0.0466806 5.35286 5.70531 -0.0308079 12.5235 0.000132689C19.62 0.0310733 24.9539 5.70867 24.9848 12.5465H25.0003ZM8.72015 10.1641C8.51916 11.7421 8.51916 13.2891 8.72015 14.8516H16.3114C16.3114 14.7279 16.3423 14.6196 16.3423 14.5113C16.3423 13.1808 16.3423 11.8349 16.3423 10.5045C16.3423 10.226 16.265 10.1332 15.9712 10.1332C13.6521 10.1332 11.3485 10.1332 9.02936 10.1332C8.9366 10.1332 8.84384 10.1332 8.72015 10.1332V10.1641ZM9.06029 17.2186C9.47773 18.9048 9.97247 20.5292 11.132 21.8442C12.137 22.9735 12.7863 23.0199 13.8067 21.8751C14.3788 21.2563 14.8117 20.5292 15.09 19.7402C15.3837 18.9203 15.662 18.0849 15.9558 17.2186H9.06029ZM15.9403 7.81263C15.6929 7.07006 15.461 6.34295 15.2291 5.61585C14.9199 4.7031 14.4406 3.88318 13.8222 3.1406C12.9718 2.13503 12.3534 2.07315 11.3794 2.93949C11.3176 3.00137 11.2402 3.04778 11.1939 3.10966C10.0498 4.47105 9.50865 6.09543 9.09121 7.81263H15.9712H15.9403ZM6.29282 14.8826V10.1641C5.1178 10.1641 3.95825 10.1641 2.78323 10.1641C2.70593 10.1641 2.5977 10.2724 2.58224 10.3498C2.22664 11.7885 2.2421 13.2272 2.56678 14.6814C2.61316 14.8671 2.70593 14.8826 2.86053 14.8826C3.63357 14.8826 4.40661 14.8826 5.17964 14.8826C5.5507 14.8826 5.93722 14.8826 6.29282 14.8826ZM18.7387 14.8826C19.821 14.8826 20.9496 14.8826 22.0782 14.8826C22.3256 14.8826 22.4029 14.7897 22.4493 14.5732C22.7276 13.1963 22.743 11.8194 22.4493 10.4426C22.4029 10.226 22.3256 10.1641 22.1091 10.1641C21.0424 10.1641 19.9756 10.1641 18.9242 10.1641C18.8469 10.1641 18.7542 10.1796 18.7542 10.1796V14.8826H18.7387ZM8.22541 21.7204C8.22541 21.7204 8.22541 21.6431 8.22541 21.6276C7.52967 20.2817 7.08131 18.8584 6.74118 17.4042C6.69479 17.2186 6.58657 17.2031 6.43196 17.2031C5.51978 17.2031 4.6076 17.2031 3.69541 17.2031C3.63357 17.2031 3.55627 17.2031 3.47896 17.2186C4.252 18.9512 6.35466 20.9469 8.22541 21.705V21.7204ZM3.44804 7.81263C4.51483 7.81263 5.50432 7.81263 6.50927 7.81263C6.58657 7.81263 6.72572 7.65793 6.75664 7.54964C7.03493 6.66783 7.2823 5.78602 7.57606 4.90422C7.76158 4.36276 8.02442 3.85224 8.27179 3.27984C6.15367 4.26993 4.57667 5.75508 3.4635 7.81263H3.44804ZM21.5371 7.81263C20.4239 5.73961 18.8469 4.26993 16.7133 3.26437C16.9143 3.713 17.1308 4.08429 17.2545 4.48652C17.5946 5.50756 17.9038 6.5286 18.244 7.54964C18.2749 7.65793 18.3986 7.79716 18.4913 7.79716C19.4963 7.81263 20.4858 7.79716 21.5371 7.79716V7.81263ZM16.6979 21.7514C18.8469 20.7458 20.4239 19.2607 21.5216 17.2031C20.5012 17.2031 19.5427 17.2031 18.5841 17.2031C18.3522 17.2031 18.2749 17.2805 18.213 17.497C17.9038 18.5336 17.5791 19.5701 17.239 20.6066C17.1153 20.9779 16.8989 21.3337 16.6979 21.7668V21.7514Z" fill="#50535C"/>
</g>
<defs>
<clipPath id="clip0_2807_868">
<rect width="25" height="25" fill="white"/>
</clipPath>
</defs>
</svg>
