<svg width="33" height="33" viewBox="0 0 33 33" fill="none" xmlns="http://www.w3.org/2000/svg">
<path d="M16.4999 1C20.6127 1 24.557 2.63383 27.4652 5.542C30.3733 8.45018 32.0072 12.3945 32.0072 16.5072V16.5072C32.0072 20.62 30.3733 24.5643 27.4652 27.4725C24.557 30.3807 20.6127 32.0145 16.4999 32.0145V32.0145C12.3871 32.0145 8.44285 30.3807 5.53468 27.4725C2.62651 24.5643 0.992676 20.62 0.992676 16.5072V16.5072C0.992676 12.3945 2.62651 8.45018 5.53468 5.542C8.44285 2.63383 12.3871 1 16.4999 1V1Z" stroke="white" stroke-miterlimit="10"/>
<path d="M23.7111 13.4056C23.6872 12.8495 23.4498 12.3239 23.0483 11.9384C22.6469 11.5528 22.1122 11.3369 21.5556 11.3354H11.4759C10.9195 11.3351 10.3846 11.5507 9.98396 11.9368C9.58333 12.323 9.34823 12.8495 9.32814 13.4056V19.1898C9.32712 19.4725 9.38194 19.7527 9.48942 20.0142C9.5969 20.2756 9.75489 20.5134 9.95443 20.7136C10.154 20.9139 10.3911 21.0728 10.6522 21.1812C10.9133 21.2896 11.1932 21.3453 11.4759 21.3453H21.5556C21.839 21.3463 22.1197 21.2912 22.3817 21.1833C22.6437 21.0753 22.8817 20.9166 23.082 20.7163C23.2824 20.5159 23.4411 20.2779 23.5491 20.0159C23.6571 19.7539 23.7122 19.4731 23.7111 19.1898V13.4056ZM15.0581 18.7788V13.4056L19.1907 16.1116L15.0581 18.7788Z" fill="white"/>
</svg>
